M48
; DRILL file {KiCad 7.0.10} date Thu Jan 18 21:32:10 2024
; FORMAT={-:-/ absolute / inch / decimal}
; #@! TF.CreationDate,2024-01-18T21:32:10-08:00
; #@! TF.GenerationSoftware,Kicad,Pcbnew,7.0.10
; #@! TF.FileFunction,Plated,1,2,PTH
FMAT,2
INCH
; #@! TA.AperFunction,Plated,PTH,ViaDrill
T1C0.0157
; #@! TA.AperFunction,Plated,PTH,ComponentDrill
T2C0.0394
%
G90
G05
T1
X5.4Y-4.45
X5.45Y-4.34
X5.53Y-4.08
X5.74Y-4.13
X6.01Y-3.7204
X6.04Y-3.37
X6.08Y-3.56
X6.08Y-3.79
T2
X4.89Y-3.22
X4.96Y-3.74
X4.96Y-3.84
X4.96Y-3.94
X4.96Y-4.04
X4.96Y-4.14
X4.96Y-4.24
X4.96Y-4.34
X4.99Y-3.22
X5.09Y-3.22
X5.1Y-3.41
X5.14Y-3.68
X5.14Y-3.78
X5.14Y-3.88
X5.14Y-3.98
X5.14Y-4.08
X5.14Y-4.18
X5.14Y-4.28
X5.14Y-4.38
X5.14Y-4.48
X5.14Y-4.58
X5.14Y-4.68
X5.14Y-4.78
X5.14Y-4.88
X5.14Y-4.98
X5.19Y-3.22
X5.29Y-3.22
X5.3Y-3.48
X5.3Y-3.58
X5.3Y-3.68
X5.3Y-3.78
X5.3Y-3.88
X5.3Y-3.98
X5.3Y-4.08
X5.3Y-4.18
X5.3Y-4.28
X5.3Y-4.38
X5.3Y-4.48
X5.3Y-4.58
X5.3Y-4.68
X5.3Y-4.78
X5.3Y-4.88
X5.39Y-3.22
X5.49Y-3.22
X5.6498Y-3.22
X5.7498Y-3.22
X5.8498Y-3.22
X5.9Y-3.48
X5.9Y-3.58
X5.9Y-3.68
X5.9Y-3.78
X5.9Y-3.88
X5.9Y-3.98
X5.9Y-4.08
X5.9Y-4.18
X5.9Y-4.28
X5.9Y-4.38
X5.9Y-4.48
X5.9Y-4.58
X5.9Y-4.68
X5.9Y-4.78
X5.9Y-4.88
X5.9498Y-3.22
X6.0498Y-3.22
X6.1498Y-3.22
X6.1878Y-3.4204
X6.1878Y-3.5204
X6.1878Y-3.6204
X6.1878Y-3.7204
X6.19Y-3.88
X6.19Y-3.98
X6.19Y-4.08
X6.19Y-4.18
X6.19Y-4.28
X6.19Y-4.38
X6.19Y-4.48
X6.19Y-4.58
X6.19Y-4.75
X6.2498Y-3.22
M30
