G04 #@! TF.GenerationSoftware,KiCad,Pcbnew,7.0.10*
G04 #@! TF.CreationDate,2024-01-10T10:45:30-08:00*
G04 #@! TF.ProjectId,Jettabrain,4a657474-6162-4726-9169-6e2e6b696361,rev?*
G04 #@! TF.SameCoordinates,Original*
G04 #@! TF.FileFunction,Soldermask,Bot*
G04 #@! TF.FilePolarity,Negative*
%FSLAX46Y46*%
G04 Gerber Fmt 4.6, Leading zero omitted, Abs format (unit mm)*
G04 Created by KiCad (PCBNEW 7.0.10) date 2024-01-10 10:45:30*
%MOMM*%
%LPD*%
G01*
G04 APERTURE LIST*
%ADD10R,0.850000X0.850000*%
%ADD11O,0.850000X0.850000*%
%ADD12R,1.600000X1.600000*%
%ADD13O,1.600000X1.600000*%
G04 APERTURE END LIST*
D10*
X126746000Y-88346000D03*
D11*
X126746000Y-89346000D03*
X126746000Y-90346000D03*
X126746000Y-91346000D03*
X126746000Y-92346000D03*
X126746000Y-93346000D03*
X126746000Y-94346000D03*
X126746000Y-95346000D03*
X126746000Y-96346000D03*
X126746000Y-97346000D03*
X126746000Y-98346000D03*
X126746000Y-99346000D03*
X126746000Y-100346000D03*
X126746000Y-101346000D03*
D10*
X124311000Y-110188000D03*
D11*
X124311000Y-109188000D03*
X124311000Y-108188000D03*
X124311000Y-107188000D03*
X124311000Y-106188000D03*
X124311000Y-105188000D03*
X124311000Y-104188000D03*
D10*
X157226000Y-118872000D03*
D12*
X134620000Y-88392000D03*
D13*
X134620000Y-90932000D03*
X134620000Y-93472000D03*
X134620000Y-96012000D03*
X134620000Y-98552000D03*
X134620000Y-101092000D03*
X134620000Y-103632000D03*
X134620000Y-106172000D03*
X134620000Y-108712000D03*
X134620000Y-111252000D03*
X134620000Y-113792000D03*
X134620000Y-116332000D03*
X134620000Y-118872000D03*
X134620000Y-121412000D03*
X134620000Y-123952000D03*
X149860000Y-123952000D03*
X149860000Y-121412000D03*
X149860000Y-118872000D03*
X149860000Y-116332000D03*
X149860000Y-113792000D03*
X149860000Y-111252000D03*
X149860000Y-108712000D03*
X149860000Y-106172000D03*
X149860000Y-103632000D03*
X149860000Y-101092000D03*
X149860000Y-98552000D03*
X149860000Y-96012000D03*
X149860000Y-93472000D03*
X149860000Y-90932000D03*
X149860000Y-88392000D03*
D10*
X157226000Y-109332000D03*
D11*
X157226000Y-110332000D03*
X157226000Y-111332000D03*
X157226000Y-112332000D03*
X157226000Y-113332000D03*
X157226000Y-114332000D03*
X157226000Y-115332000D03*
X157226000Y-116332000D03*
D10*
X134144000Y-81788000D03*
D11*
X135144000Y-81788000D03*
X136144000Y-81788000D03*
X137144000Y-81788000D03*
X138144000Y-81788000D03*
X139144000Y-81788000D03*
X140144000Y-81788000D03*
D10*
X143050000Y-81788000D03*
D11*
X144050000Y-81788000D03*
X145050000Y-81788000D03*
X146050000Y-81788000D03*
X147050000Y-81788000D03*
X148050000Y-81788000D03*
X149050000Y-81788000D03*
D10*
X157988000Y-88646000D03*
D11*
X157988000Y-89646000D03*
X157988000Y-90646000D03*
X157988000Y-91646000D03*
M02*
