G04 #@! TF.GenerationSoftware,KiCad,Pcbnew,7.0.10*
G04 #@! TF.CreationDate,2024-01-10T10:45:30-08:00*
G04 #@! TF.ProjectId,Jettabrain,4a657474-6162-4726-9169-6e2e6b696361,rev?*
G04 #@! TF.SameCoordinates,Original*
G04 #@! TF.FileFunction,Legend,Top*
G04 #@! TF.FilePolarity,Positive*
%FSLAX46Y46*%
G04 Gerber Fmt 4.6, Leading zero omitted, Abs format (unit mm)*
G04 Created by KiCad (PCBNEW 7.0.10) date 2024-01-10 10:45:30*
%MOMM*%
%LPD*%
G01*
G04 APERTURE LIST*
G04 Aperture macros list*
%AMRoundRect*
0 Rectangle with rounded corners*
0 $1 Rounding radius*
0 $2 $3 $4 $5 $6 $7 $8 $9 X,Y pos of 4 corners*
0 Add a 4 corners polygon primitive as box body*
4,1,4,$2,$3,$4,$5,$6,$7,$8,$9,$2,$3,0*
0 Add four circle primitives for the rounded corners*
1,1,$1+$1,$2,$3*
1,1,$1+$1,$4,$5*
1,1,$1+$1,$6,$7*
1,1,$1+$1,$8,$9*
0 Add four rect primitives between the rounded corners*
20,1,$1+$1,$2,$3,$4,$5,0*
20,1,$1+$1,$4,$5,$6,$7,0*
20,1,$1+$1,$6,$7,$8,$9,0*
20,1,$1+$1,$8,$9,$2,$3,0*%
G04 Aperture macros list end*
%ADD10C,0.150000*%
%ADD11C,0.120000*%
%ADD12RoundRect,0.250000X-0.400000X-0.625000X0.400000X-0.625000X0.400000X0.625000X-0.400000X0.625000X0*%
%ADD13R,0.850000X0.850000*%
%ADD14O,0.850000X0.850000*%
%ADD15R,1.600000X1.600000*%
%ADD16O,1.600000X1.600000*%
G04 APERTURE END LIST*
D10*
X126412666Y-86240819D02*
X126412666Y-86955104D01*
X126412666Y-86955104D02*
X126365047Y-87097961D01*
X126365047Y-87097961D02*
X126269809Y-87193200D01*
X126269809Y-87193200D02*
X126126952Y-87240819D01*
X126126952Y-87240819D02*
X126031714Y-87240819D01*
X127365047Y-86240819D02*
X126888857Y-86240819D01*
X126888857Y-86240819D02*
X126841238Y-86717009D01*
X126841238Y-86717009D02*
X126888857Y-86669390D01*
X126888857Y-86669390D02*
X126984095Y-86621771D01*
X126984095Y-86621771D02*
X127222190Y-86621771D01*
X127222190Y-86621771D02*
X127317428Y-86669390D01*
X127317428Y-86669390D02*
X127365047Y-86717009D01*
X127365047Y-86717009D02*
X127412666Y-86812247D01*
X127412666Y-86812247D02*
X127412666Y-87050342D01*
X127412666Y-87050342D02*
X127365047Y-87145580D01*
X127365047Y-87145580D02*
X127317428Y-87193200D01*
X127317428Y-87193200D02*
X127222190Y-87240819D01*
X127222190Y-87240819D02*
X126984095Y-87240819D01*
X126984095Y-87240819D02*
X126888857Y-87193200D01*
X126888857Y-87193200D02*
X126841238Y-87145580D01*
X122936191Y-102816819D02*
X122936191Y-101816819D01*
X124126666Y-101769200D02*
X123269524Y-103054914D01*
X124650476Y-101816819D02*
X124840952Y-101816819D01*
X124840952Y-101816819D02*
X124936190Y-101864438D01*
X124936190Y-101864438D02*
X125031428Y-101959676D01*
X125031428Y-101959676D02*
X125079047Y-102150152D01*
X125079047Y-102150152D02*
X125079047Y-102483485D01*
X125079047Y-102483485D02*
X125031428Y-102673961D01*
X125031428Y-102673961D02*
X124936190Y-102769200D01*
X124936190Y-102769200D02*
X124840952Y-102816819D01*
X124840952Y-102816819D02*
X124650476Y-102816819D01*
X124650476Y-102816819D02*
X124555238Y-102769200D01*
X124555238Y-102769200D02*
X124460000Y-102673961D01*
X124460000Y-102673961D02*
X124412381Y-102483485D01*
X124412381Y-102483485D02*
X124412381Y-102150152D01*
X124412381Y-102150152D02*
X124460000Y-101959676D01*
X124460000Y-101959676D02*
X124555238Y-101864438D01*
X124555238Y-101864438D02*
X124650476Y-101816819D01*
X126031428Y-102816819D02*
X125460000Y-102816819D01*
X125745714Y-102816819D02*
X125745714Y-101816819D01*
X125745714Y-101816819D02*
X125650476Y-101959676D01*
X125650476Y-101959676D02*
X125555238Y-102054914D01*
X125555238Y-102054914D02*
X125460000Y-102102533D01*
X156892666Y-116766819D02*
X156892666Y-117481104D01*
X156892666Y-117481104D02*
X156845047Y-117623961D01*
X156845047Y-117623961D02*
X156749809Y-117719200D01*
X156749809Y-117719200D02*
X156606952Y-117766819D01*
X156606952Y-117766819D02*
X156511714Y-117766819D01*
X157273619Y-116766819D02*
X157940285Y-116766819D01*
X157940285Y-116766819D02*
X157511714Y-117766819D01*
X137031666Y-86275104D02*
X137507856Y-86275104D01*
X136936428Y-86560819D02*
X137269761Y-85560819D01*
X137269761Y-85560819D02*
X137603094Y-86560819D01*
X137936428Y-86560819D02*
X137936428Y-85894152D01*
X137936428Y-86084628D02*
X137984047Y-85989390D01*
X137984047Y-85989390D02*
X138031666Y-85941771D01*
X138031666Y-85941771D02*
X138126904Y-85894152D01*
X138126904Y-85894152D02*
X138222142Y-85894152D01*
X138984047Y-86560819D02*
X138984047Y-85560819D01*
X138984047Y-86513200D02*
X138888809Y-86560819D01*
X138888809Y-86560819D02*
X138698333Y-86560819D01*
X138698333Y-86560819D02*
X138603095Y-86513200D01*
X138603095Y-86513200D02*
X138555476Y-86465580D01*
X138555476Y-86465580D02*
X138507857Y-86370342D01*
X138507857Y-86370342D02*
X138507857Y-86084628D01*
X138507857Y-86084628D02*
X138555476Y-85989390D01*
X138555476Y-85989390D02*
X138603095Y-85941771D01*
X138603095Y-85941771D02*
X138698333Y-85894152D01*
X138698333Y-85894152D02*
X138888809Y-85894152D01*
X138888809Y-85894152D02*
X138984047Y-85941771D01*
X139888809Y-85894152D02*
X139888809Y-86560819D01*
X139460238Y-85894152D02*
X139460238Y-86417961D01*
X139460238Y-86417961D02*
X139507857Y-86513200D01*
X139507857Y-86513200D02*
X139603095Y-86560819D01*
X139603095Y-86560819D02*
X139745952Y-86560819D01*
X139745952Y-86560819D02*
X139841190Y-86513200D01*
X139841190Y-86513200D02*
X139888809Y-86465580D01*
X140365000Y-86560819D02*
X140365000Y-85894152D01*
X140365000Y-85560819D02*
X140317381Y-85608438D01*
X140317381Y-85608438D02*
X140365000Y-85656057D01*
X140365000Y-85656057D02*
X140412619Y-85608438D01*
X140412619Y-85608438D02*
X140365000Y-85560819D01*
X140365000Y-85560819D02*
X140365000Y-85656057D01*
X140841190Y-85894152D02*
X140841190Y-86560819D01*
X140841190Y-85989390D02*
X140888809Y-85941771D01*
X140888809Y-85941771D02*
X140984047Y-85894152D01*
X140984047Y-85894152D02*
X141126904Y-85894152D01*
X141126904Y-85894152D02*
X141222142Y-85941771D01*
X141222142Y-85941771D02*
X141269761Y-86037009D01*
X141269761Y-86037009D02*
X141269761Y-86560819D01*
X141888809Y-86560819D02*
X141793571Y-86513200D01*
X141793571Y-86513200D02*
X141745952Y-86465580D01*
X141745952Y-86465580D02*
X141698333Y-86370342D01*
X141698333Y-86370342D02*
X141698333Y-86084628D01*
X141698333Y-86084628D02*
X141745952Y-85989390D01*
X141745952Y-85989390D02*
X141793571Y-85941771D01*
X141793571Y-85941771D02*
X141888809Y-85894152D01*
X141888809Y-85894152D02*
X142031666Y-85894152D01*
X142031666Y-85894152D02*
X142126904Y-85941771D01*
X142126904Y-85941771D02*
X142174523Y-85989390D01*
X142174523Y-85989390D02*
X142222142Y-86084628D01*
X142222142Y-86084628D02*
X142222142Y-86370342D01*
X142222142Y-86370342D02*
X142174523Y-86465580D01*
X142174523Y-86465580D02*
X142126904Y-86513200D01*
X142126904Y-86513200D02*
X142031666Y-86560819D01*
X142031666Y-86560819D02*
X141888809Y-86560819D01*
X142412619Y-86656057D02*
X143174523Y-86656057D01*
X143412619Y-86560819D02*
X143412619Y-85560819D01*
X143412619Y-85560819D02*
X143984047Y-86560819D01*
X143984047Y-86560819D02*
X143984047Y-85560819D01*
X144888809Y-86560819D02*
X144888809Y-86037009D01*
X144888809Y-86037009D02*
X144841190Y-85941771D01*
X144841190Y-85941771D02*
X144745952Y-85894152D01*
X144745952Y-85894152D02*
X144555476Y-85894152D01*
X144555476Y-85894152D02*
X144460238Y-85941771D01*
X144888809Y-86513200D02*
X144793571Y-86560819D01*
X144793571Y-86560819D02*
X144555476Y-86560819D01*
X144555476Y-86560819D02*
X144460238Y-86513200D01*
X144460238Y-86513200D02*
X144412619Y-86417961D01*
X144412619Y-86417961D02*
X144412619Y-86322723D01*
X144412619Y-86322723D02*
X144460238Y-86227485D01*
X144460238Y-86227485D02*
X144555476Y-86179866D01*
X144555476Y-86179866D02*
X144793571Y-86179866D01*
X144793571Y-86179866D02*
X144888809Y-86132247D01*
X145365000Y-85894152D02*
X145365000Y-86560819D01*
X145365000Y-85989390D02*
X145412619Y-85941771D01*
X145412619Y-85941771D02*
X145507857Y-85894152D01*
X145507857Y-85894152D02*
X145650714Y-85894152D01*
X145650714Y-85894152D02*
X145745952Y-85941771D01*
X145745952Y-85941771D02*
X145793571Y-86037009D01*
X145793571Y-86037009D02*
X145793571Y-86560819D01*
X146412619Y-86560819D02*
X146317381Y-86513200D01*
X146317381Y-86513200D02*
X146269762Y-86465580D01*
X146269762Y-86465580D02*
X146222143Y-86370342D01*
X146222143Y-86370342D02*
X146222143Y-86084628D01*
X146222143Y-86084628D02*
X146269762Y-85989390D01*
X146269762Y-85989390D02*
X146317381Y-85941771D01*
X146317381Y-85941771D02*
X146412619Y-85894152D01*
X146412619Y-85894152D02*
X146555476Y-85894152D01*
X146555476Y-85894152D02*
X146650714Y-85941771D01*
X146650714Y-85941771D02*
X146698333Y-85989390D01*
X146698333Y-85989390D02*
X146745952Y-86084628D01*
X146745952Y-86084628D02*
X146745952Y-86370342D01*
X146745952Y-86370342D02*
X146698333Y-86465580D01*
X146698333Y-86465580D02*
X146650714Y-86513200D01*
X146650714Y-86513200D02*
X146555476Y-86560819D01*
X146555476Y-86560819D02*
X146412619Y-86560819D01*
X147698333Y-86560819D02*
X147126905Y-86560819D01*
X147412619Y-86560819D02*
X147412619Y-85560819D01*
X147412619Y-85560819D02*
X147317381Y-85703676D01*
X147317381Y-85703676D02*
X147222143Y-85798914D01*
X147222143Y-85798914D02*
X147126905Y-85846533D01*
X140978095Y-123406819D02*
X140978095Y-124216342D01*
X140978095Y-124216342D02*
X141025714Y-124311580D01*
X141025714Y-124311580D02*
X141073333Y-124359200D01*
X141073333Y-124359200D02*
X141168571Y-124406819D01*
X141168571Y-124406819D02*
X141359047Y-124406819D01*
X141359047Y-124406819D02*
X141454285Y-124359200D01*
X141454285Y-124359200D02*
X141501904Y-124311580D01*
X141501904Y-124311580D02*
X141549523Y-124216342D01*
X141549523Y-124216342D02*
X141549523Y-123406819D01*
X141978095Y-124359200D02*
X142120952Y-124406819D01*
X142120952Y-124406819D02*
X142359047Y-124406819D01*
X142359047Y-124406819D02*
X142454285Y-124359200D01*
X142454285Y-124359200D02*
X142501904Y-124311580D01*
X142501904Y-124311580D02*
X142549523Y-124216342D01*
X142549523Y-124216342D02*
X142549523Y-124121104D01*
X142549523Y-124121104D02*
X142501904Y-124025866D01*
X142501904Y-124025866D02*
X142454285Y-123978247D01*
X142454285Y-123978247D02*
X142359047Y-123930628D01*
X142359047Y-123930628D02*
X142168571Y-123883009D01*
X142168571Y-123883009D02*
X142073333Y-123835390D01*
X142073333Y-123835390D02*
X142025714Y-123787771D01*
X142025714Y-123787771D02*
X141978095Y-123692533D01*
X141978095Y-123692533D02*
X141978095Y-123597295D01*
X141978095Y-123597295D02*
X142025714Y-123502057D01*
X142025714Y-123502057D02*
X142073333Y-123454438D01*
X142073333Y-123454438D02*
X142168571Y-123406819D01*
X142168571Y-123406819D02*
X142406666Y-123406819D01*
X142406666Y-123406819D02*
X142549523Y-123454438D01*
X143311428Y-123883009D02*
X143454285Y-123930628D01*
X143454285Y-123930628D02*
X143501904Y-123978247D01*
X143501904Y-123978247D02*
X143549523Y-124073485D01*
X143549523Y-124073485D02*
X143549523Y-124216342D01*
X143549523Y-124216342D02*
X143501904Y-124311580D01*
X143501904Y-124311580D02*
X143454285Y-124359200D01*
X143454285Y-124359200D02*
X143359047Y-124406819D01*
X143359047Y-124406819D02*
X142978095Y-124406819D01*
X142978095Y-124406819D02*
X142978095Y-123406819D01*
X142978095Y-123406819D02*
X143311428Y-123406819D01*
X143311428Y-123406819D02*
X143406666Y-123454438D01*
X143406666Y-123454438D02*
X143454285Y-123502057D01*
X143454285Y-123502057D02*
X143501904Y-123597295D01*
X143501904Y-123597295D02*
X143501904Y-123692533D01*
X143501904Y-123692533D02*
X143454285Y-123787771D01*
X143454285Y-123787771D02*
X143406666Y-123835390D01*
X143406666Y-123835390D02*
X143311428Y-123883009D01*
X143311428Y-123883009D02*
X142978095Y-123883009D01*
X156892666Y-107226819D02*
X156892666Y-107941104D01*
X156892666Y-107941104D02*
X156845047Y-108083961D01*
X156845047Y-108083961D02*
X156749809Y-108179200D01*
X156749809Y-108179200D02*
X156606952Y-108226819D01*
X156606952Y-108226819D02*
X156511714Y-108226819D01*
X157797428Y-107226819D02*
X157606952Y-107226819D01*
X157606952Y-107226819D02*
X157511714Y-107274438D01*
X157511714Y-107274438D02*
X157464095Y-107322057D01*
X157464095Y-107322057D02*
X157368857Y-107464914D01*
X157368857Y-107464914D02*
X157321238Y-107655390D01*
X157321238Y-107655390D02*
X157321238Y-108036342D01*
X157321238Y-108036342D02*
X157368857Y-108131580D01*
X157368857Y-108131580D02*
X157416476Y-108179200D01*
X157416476Y-108179200D02*
X157511714Y-108226819D01*
X157511714Y-108226819D02*
X157702190Y-108226819D01*
X157702190Y-108226819D02*
X157797428Y-108179200D01*
X157797428Y-108179200D02*
X157845047Y-108131580D01*
X157845047Y-108131580D02*
X157892666Y-108036342D01*
X157892666Y-108036342D02*
X157892666Y-107798247D01*
X157892666Y-107798247D02*
X157845047Y-107703009D01*
X157845047Y-107703009D02*
X157797428Y-107655390D01*
X157797428Y-107655390D02*
X157702190Y-107607771D01*
X157702190Y-107607771D02*
X157511714Y-107607771D01*
X157511714Y-107607771D02*
X157416476Y-107655390D01*
X157416476Y-107655390D02*
X157368857Y-107703009D01*
X157368857Y-107703009D02*
X157321238Y-107798247D01*
X131582438Y-81651095D02*
X131534819Y-81746333D01*
X131534819Y-81746333D02*
X131534819Y-81889190D01*
X131534819Y-81889190D02*
X131582438Y-82032047D01*
X131582438Y-82032047D02*
X131677676Y-82127285D01*
X131677676Y-82127285D02*
X131772914Y-82174904D01*
X131772914Y-82174904D02*
X131963390Y-82222523D01*
X131963390Y-82222523D02*
X132106247Y-82222523D01*
X132106247Y-82222523D02*
X132296723Y-82174904D01*
X132296723Y-82174904D02*
X132391961Y-82127285D01*
X132391961Y-82127285D02*
X132487200Y-82032047D01*
X132487200Y-82032047D02*
X132534819Y-81889190D01*
X132534819Y-81889190D02*
X132534819Y-81793952D01*
X132534819Y-81793952D02*
X132487200Y-81651095D01*
X132487200Y-81651095D02*
X132439580Y-81603476D01*
X132439580Y-81603476D02*
X132106247Y-81603476D01*
X132106247Y-81603476D02*
X132106247Y-81793952D01*
X132534819Y-81174904D02*
X131534819Y-81174904D01*
X131534819Y-81174904D02*
X132534819Y-80603476D01*
X132534819Y-80603476D02*
X131534819Y-80603476D01*
X132534819Y-80127285D02*
X131534819Y-80127285D01*
X131534819Y-80127285D02*
X131534819Y-79889190D01*
X131534819Y-79889190D02*
X131582438Y-79746333D01*
X131582438Y-79746333D02*
X131677676Y-79651095D01*
X131677676Y-79651095D02*
X131772914Y-79603476D01*
X131772914Y-79603476D02*
X131963390Y-79555857D01*
X131963390Y-79555857D02*
X132106247Y-79555857D01*
X132106247Y-79555857D02*
X132296723Y-79603476D01*
X132296723Y-79603476D02*
X132391961Y-79651095D01*
X132391961Y-79651095D02*
X132487200Y-79746333D01*
X132487200Y-79746333D02*
X132534819Y-79889190D01*
X132534819Y-79889190D02*
X132534819Y-80127285D01*
X132534819Y-78603476D02*
X132534819Y-79174904D01*
X132534819Y-78889190D02*
X131534819Y-78889190D01*
X131534819Y-78889190D02*
X131677676Y-78984428D01*
X131677676Y-78984428D02*
X131772914Y-79079666D01*
X131772914Y-79079666D02*
X131820533Y-79174904D01*
X150949866Y-82174904D02*
X150949866Y-81413000D01*
X151330819Y-81793952D02*
X150568914Y-81793952D01*
X150330819Y-80460619D02*
X150330819Y-80936809D01*
X150330819Y-80936809D02*
X150807009Y-80984428D01*
X150807009Y-80984428D02*
X150759390Y-80936809D01*
X150759390Y-80936809D02*
X150711771Y-80841571D01*
X150711771Y-80841571D02*
X150711771Y-80603476D01*
X150711771Y-80603476D02*
X150759390Y-80508238D01*
X150759390Y-80508238D02*
X150807009Y-80460619D01*
X150807009Y-80460619D02*
X150902247Y-80413000D01*
X150902247Y-80413000D02*
X151140342Y-80413000D01*
X151140342Y-80413000D02*
X151235580Y-80460619D01*
X151235580Y-80460619D02*
X151283200Y-80508238D01*
X151283200Y-80508238D02*
X151330819Y-80603476D01*
X151330819Y-80603476D02*
X151330819Y-80841571D01*
X151330819Y-80841571D02*
X151283200Y-80936809D01*
X151283200Y-80936809D02*
X151235580Y-80984428D01*
X150330819Y-80127285D02*
X151330819Y-79793952D01*
X151330819Y-79793952D02*
X150330819Y-79460619D01*
X151330819Y-78603476D02*
X151330819Y-79174904D01*
X151330819Y-78889190D02*
X150330819Y-78889190D01*
X150330819Y-78889190D02*
X150473676Y-78984428D01*
X150473676Y-78984428D02*
X150568914Y-79079666D01*
X150568914Y-79079666D02*
X150616533Y-79174904D01*
X153789428Y-86814819D02*
X153789428Y-85814819D01*
X153789428Y-85814819D02*
X154027523Y-85814819D01*
X154027523Y-85814819D02*
X154170380Y-85862438D01*
X154170380Y-85862438D02*
X154265618Y-85957676D01*
X154265618Y-85957676D02*
X154313237Y-86052914D01*
X154313237Y-86052914D02*
X154360856Y-86243390D01*
X154360856Y-86243390D02*
X154360856Y-86386247D01*
X154360856Y-86386247D02*
X154313237Y-86576723D01*
X154313237Y-86576723D02*
X154265618Y-86671961D01*
X154265618Y-86671961D02*
X154170380Y-86767200D01*
X154170380Y-86767200D02*
X154027523Y-86814819D01*
X154027523Y-86814819D02*
X153789428Y-86814819D01*
X154789428Y-86814819D02*
X154789428Y-86148152D01*
X154789428Y-85814819D02*
X154741809Y-85862438D01*
X154741809Y-85862438D02*
X154789428Y-85910057D01*
X154789428Y-85910057D02*
X154837047Y-85862438D01*
X154837047Y-85862438D02*
X154789428Y-85814819D01*
X154789428Y-85814819D02*
X154789428Y-85910057D01*
X155217999Y-86767200D02*
X155313237Y-86814819D01*
X155313237Y-86814819D02*
X155503713Y-86814819D01*
X155503713Y-86814819D02*
X155598951Y-86767200D01*
X155598951Y-86767200D02*
X155646570Y-86671961D01*
X155646570Y-86671961D02*
X155646570Y-86624342D01*
X155646570Y-86624342D02*
X155598951Y-86529104D01*
X155598951Y-86529104D02*
X155503713Y-86481485D01*
X155503713Y-86481485D02*
X155360856Y-86481485D01*
X155360856Y-86481485D02*
X155265618Y-86433866D01*
X155265618Y-86433866D02*
X155217999Y-86338628D01*
X155217999Y-86338628D02*
X155217999Y-86291009D01*
X155217999Y-86291009D02*
X155265618Y-86195771D01*
X155265618Y-86195771D02*
X155360856Y-86148152D01*
X155360856Y-86148152D02*
X155503713Y-86148152D01*
X155503713Y-86148152D02*
X155598951Y-86195771D01*
X156075142Y-86148152D02*
X156075142Y-87148152D01*
X156075142Y-86195771D02*
X156170380Y-86148152D01*
X156170380Y-86148152D02*
X156360856Y-86148152D01*
X156360856Y-86148152D02*
X156456094Y-86195771D01*
X156456094Y-86195771D02*
X156503713Y-86243390D01*
X156503713Y-86243390D02*
X156551332Y-86338628D01*
X156551332Y-86338628D02*
X156551332Y-86624342D01*
X156551332Y-86624342D02*
X156503713Y-86719580D01*
X156503713Y-86719580D02*
X156456094Y-86767200D01*
X156456094Y-86767200D02*
X156360856Y-86814819D01*
X156360856Y-86814819D02*
X156170380Y-86814819D01*
X156170380Y-86814819D02*
X156075142Y-86767200D01*
X157122761Y-86814819D02*
X157027523Y-86767200D01*
X157027523Y-86767200D02*
X156979904Y-86671961D01*
X156979904Y-86671961D02*
X156979904Y-85814819D01*
X157932285Y-86814819D02*
X157932285Y-86291009D01*
X157932285Y-86291009D02*
X157884666Y-86195771D01*
X157884666Y-86195771D02*
X157789428Y-86148152D01*
X157789428Y-86148152D02*
X157598952Y-86148152D01*
X157598952Y-86148152D02*
X157503714Y-86195771D01*
X157932285Y-86767200D02*
X157837047Y-86814819D01*
X157837047Y-86814819D02*
X157598952Y-86814819D01*
X157598952Y-86814819D02*
X157503714Y-86767200D01*
X157503714Y-86767200D02*
X157456095Y-86671961D01*
X157456095Y-86671961D02*
X157456095Y-86576723D01*
X157456095Y-86576723D02*
X157503714Y-86481485D01*
X157503714Y-86481485D02*
X157598952Y-86433866D01*
X157598952Y-86433866D02*
X157837047Y-86433866D01*
X157837047Y-86433866D02*
X157932285Y-86386247D01*
X158313238Y-86148152D02*
X158551333Y-86814819D01*
X158789428Y-86148152D02*
X158551333Y-86814819D01*
X158551333Y-86814819D02*
X158456095Y-87052914D01*
X158456095Y-87052914D02*
X158408476Y-87100533D01*
X158408476Y-87100533D02*
X158313238Y-87148152D01*
X159694190Y-86814819D02*
X159122762Y-86814819D01*
X159408476Y-86814819D02*
X159408476Y-85814819D01*
X159408476Y-85814819D02*
X159313238Y-85957676D01*
X159313238Y-85957676D02*
X159218000Y-86052914D01*
X159218000Y-86052914D02*
X159122762Y-86100533D01*
D11*
X125536936Y-122268000D02*
X126991064Y-122268000D01*
X125536936Y-124088000D02*
X126991064Y-124088000D01*
X126051000Y-87661000D02*
X126746000Y-87661000D01*
X126051000Y-88346000D02*
X126051000Y-87661000D01*
X126051000Y-89031000D02*
X126051000Y-101906000D01*
X126051000Y-89031000D02*
X126137724Y-89031000D01*
X126051000Y-101906000D02*
X126351507Y-101906000D01*
X127140493Y-101906000D02*
X127441000Y-101906000D01*
X127354276Y-89031000D02*
X127441000Y-89031000D01*
X127441000Y-89031000D02*
X127441000Y-101906000D01*
X124996000Y-110873000D02*
X124311000Y-110873000D01*
X124996000Y-110188000D02*
X124996000Y-110873000D01*
X123842785Y-108688000D02*
X123001000Y-108688000D01*
X123842785Y-107688000D02*
X123001000Y-107688000D01*
X123842785Y-106688000D02*
X123001000Y-106688000D01*
X123842785Y-105688000D02*
X123001000Y-105688000D01*
X123842785Y-104688000D02*
X123001000Y-104688000D01*
X123626000Y-110748000D02*
X123001000Y-110748000D01*
X123626000Y-109688000D02*
X123001000Y-109688000D01*
X123001000Y-110748000D02*
X123001000Y-103628000D01*
X123001000Y-110398000D02*
X121001000Y-110398000D01*
X123001000Y-110338000D02*
X121001000Y-110338000D01*
X123001000Y-110218000D02*
X121001000Y-110218000D01*
X123001000Y-110098000D02*
X121001000Y-110098000D01*
X123001000Y-109398000D02*
X121001000Y-109398000D01*
X123001000Y-108398000D02*
X121001000Y-108398000D01*
X123001000Y-107398000D02*
X121001000Y-107398000D01*
X123001000Y-106398000D02*
X121001000Y-106398000D01*
X123001000Y-105398000D02*
X121001000Y-105398000D01*
X123001000Y-104398000D02*
X121001000Y-104398000D01*
X123001000Y-103628000D02*
X123916507Y-103628000D01*
X121001000Y-110398000D02*
X121001000Y-109978000D01*
X121001000Y-109978000D02*
X123001000Y-109978000D01*
X121001000Y-109398000D02*
X121001000Y-108978000D01*
X121001000Y-108978000D02*
X123001000Y-108978000D01*
X121001000Y-108398000D02*
X121001000Y-107978000D01*
X121001000Y-107978000D02*
X123001000Y-107978000D01*
X121001000Y-107398000D02*
X121001000Y-106978000D01*
X121001000Y-106978000D02*
X123001000Y-106978000D01*
X121001000Y-106398000D02*
X121001000Y-105978000D01*
X121001000Y-105978000D02*
X123001000Y-105978000D01*
X121001000Y-105398000D02*
X121001000Y-104978000D01*
X121001000Y-104978000D02*
X123001000Y-104978000D01*
X121001000Y-104398000D02*
X121001000Y-103978000D01*
X121001000Y-103978000D02*
X123001000Y-103978000D01*
X156531000Y-118187000D02*
X157226000Y-118187000D01*
X156531000Y-118872000D02*
X156531000Y-118187000D01*
X156531000Y-119557000D02*
X156531000Y-119432000D01*
X156531000Y-119557000D02*
X156617724Y-119557000D01*
X156531000Y-119557000D02*
X157921000Y-119557000D01*
X157834276Y-119557000D02*
X157921000Y-119557000D01*
X157921000Y-119557000D02*
X157921000Y-119432000D01*
X125536936Y-118978000D02*
X126991064Y-118978000D01*
X125536936Y-120798000D02*
X126991064Y-120798000D01*
X133220000Y-84452000D02*
X133220000Y-87122000D01*
X133220000Y-89662000D02*
X133220000Y-127892000D01*
X133220000Y-127892000D02*
X138300000Y-127892000D01*
X135890000Y-87122000D02*
X133220000Y-87122000D01*
X135890000Y-89662000D02*
X133220000Y-89662000D01*
X135890000Y-89662000D02*
X135890000Y-87122000D01*
X135890000Y-89662000D02*
X135890000Y-125222000D01*
X135890000Y-125222000D02*
X133220000Y-125222000D01*
X138300000Y-120012000D02*
X146180000Y-120012000D01*
X138300000Y-130432000D02*
X138300000Y-120012000D01*
X146180000Y-120012000D02*
X146180000Y-130432000D01*
X146180000Y-130432000D02*
X138300000Y-130432000D01*
X148590000Y-87122000D02*
X148590000Y-125222000D01*
X148590000Y-87122000D02*
X151260000Y-87122000D01*
X148590000Y-125222000D02*
X151260000Y-125222000D01*
X151260000Y-84452000D02*
X133220000Y-84452000D01*
X151260000Y-127892000D02*
X146180000Y-127892000D01*
X151260000Y-127892000D02*
X151260000Y-84452000D01*
X125536936Y-115688000D02*
X126991064Y-115688000D01*
X125536936Y-117508000D02*
X126991064Y-117508000D01*
X156531000Y-108647000D02*
X157226000Y-108647000D01*
X156531000Y-109332000D02*
X156531000Y-108647000D01*
X156531000Y-110017000D02*
X156531000Y-116892000D01*
X156531000Y-110017000D02*
X156617724Y-110017000D01*
X156531000Y-116892000D02*
X156831507Y-116892000D01*
X157620493Y-116892000D02*
X157921000Y-116892000D01*
X157834276Y-110017000D02*
X157921000Y-110017000D01*
X157921000Y-110017000D02*
X157921000Y-116892000D01*
X133459000Y-82473000D02*
X133459000Y-81788000D01*
X134144000Y-82473000D02*
X133459000Y-82473000D01*
X135644000Y-81319785D02*
X135644000Y-80478000D01*
X136644000Y-81319785D02*
X136644000Y-80478000D01*
X137644000Y-81319785D02*
X137644000Y-80478000D01*
X138644000Y-81319785D02*
X138644000Y-80478000D01*
X139644000Y-81319785D02*
X139644000Y-80478000D01*
X133584000Y-81103000D02*
X133584000Y-80478000D01*
X134644000Y-81103000D02*
X134644000Y-80478000D01*
X133584000Y-80478000D02*
X140704000Y-80478000D01*
X133934000Y-80478000D02*
X133934000Y-78478000D01*
X133994000Y-80478000D02*
X133994000Y-78478000D01*
X134114000Y-80478000D02*
X134114000Y-78478000D01*
X134234000Y-80478000D02*
X134234000Y-78478000D01*
X134934000Y-80478000D02*
X134934000Y-78478000D01*
X135934000Y-80478000D02*
X135934000Y-78478000D01*
X136934000Y-80478000D02*
X136934000Y-78478000D01*
X137934000Y-80478000D02*
X137934000Y-78478000D01*
X138934000Y-80478000D02*
X138934000Y-78478000D01*
X139934000Y-80478000D02*
X139934000Y-78478000D01*
X140704000Y-80478000D02*
X140704000Y-81393507D01*
X133934000Y-78478000D02*
X134354000Y-78478000D01*
X134354000Y-78478000D02*
X134354000Y-80478000D01*
X134934000Y-78478000D02*
X135354000Y-78478000D01*
X135354000Y-78478000D02*
X135354000Y-80478000D01*
X135934000Y-78478000D02*
X136354000Y-78478000D01*
X136354000Y-78478000D02*
X136354000Y-80478000D01*
X136934000Y-78478000D02*
X137354000Y-78478000D01*
X137354000Y-78478000D02*
X137354000Y-80478000D01*
X137934000Y-78478000D02*
X138354000Y-78478000D01*
X138354000Y-78478000D02*
X138354000Y-80478000D01*
X138934000Y-78478000D02*
X139354000Y-78478000D01*
X139354000Y-78478000D02*
X139354000Y-80478000D01*
X139934000Y-78478000D02*
X140354000Y-78478000D01*
X140354000Y-78478000D02*
X140354000Y-80478000D01*
X125536936Y-112398000D02*
X126991064Y-112398000D01*
X125536936Y-114218000D02*
X126991064Y-114218000D01*
X142365000Y-82473000D02*
X142365000Y-81788000D01*
X143050000Y-82473000D02*
X142365000Y-82473000D01*
X144550000Y-81319785D02*
X144550000Y-80478000D01*
X145550000Y-81319785D02*
X145550000Y-80478000D01*
X146550000Y-81319785D02*
X146550000Y-80478000D01*
X147550000Y-81319785D02*
X147550000Y-80478000D01*
X148550000Y-81319785D02*
X148550000Y-80478000D01*
X142490000Y-81103000D02*
X142490000Y-80478000D01*
X143550000Y-81103000D02*
X143550000Y-80478000D01*
X142490000Y-80478000D02*
X149610000Y-80478000D01*
X142840000Y-80478000D02*
X142840000Y-78478000D01*
X142900000Y-80478000D02*
X142900000Y-78478000D01*
X143020000Y-80478000D02*
X143020000Y-78478000D01*
X143140000Y-80478000D02*
X143140000Y-78478000D01*
X143840000Y-80478000D02*
X143840000Y-78478000D01*
X144840000Y-80478000D02*
X144840000Y-78478000D01*
X145840000Y-80478000D02*
X145840000Y-78478000D01*
X146840000Y-80478000D02*
X146840000Y-78478000D01*
X147840000Y-80478000D02*
X147840000Y-78478000D01*
X148840000Y-80478000D02*
X148840000Y-78478000D01*
X149610000Y-80478000D02*
X149610000Y-81393507D01*
X142840000Y-78478000D02*
X143260000Y-78478000D01*
X143260000Y-78478000D02*
X143260000Y-80478000D01*
X143840000Y-78478000D02*
X144260000Y-78478000D01*
X144260000Y-78478000D02*
X144260000Y-80478000D01*
X144840000Y-78478000D02*
X145260000Y-78478000D01*
X145260000Y-78478000D02*
X145260000Y-80478000D01*
X145840000Y-78478000D02*
X146260000Y-78478000D01*
X146260000Y-78478000D02*
X146260000Y-80478000D01*
X146840000Y-78478000D02*
X147260000Y-78478000D01*
X147260000Y-78478000D02*
X147260000Y-80478000D01*
X147840000Y-78478000D02*
X148260000Y-78478000D01*
X148260000Y-78478000D02*
X148260000Y-80478000D01*
X148840000Y-78478000D02*
X149260000Y-78478000D01*
X149260000Y-78478000D02*
X149260000Y-80478000D01*
X157303000Y-87961000D02*
X157988000Y-87961000D01*
X157303000Y-88646000D02*
X157303000Y-87961000D01*
X158456215Y-90146000D02*
X159298000Y-90146000D01*
X158456215Y-91146000D02*
X159298000Y-91146000D01*
X158673000Y-88086000D02*
X159298000Y-88086000D01*
X158673000Y-89146000D02*
X159298000Y-89146000D01*
X159298000Y-88086000D02*
X159298000Y-92206000D01*
X159298000Y-88436000D02*
X161298000Y-88436000D01*
X159298000Y-88496000D02*
X161298000Y-88496000D01*
X159298000Y-88616000D02*
X161298000Y-88616000D01*
X159298000Y-88736000D02*
X161298000Y-88736000D01*
X159298000Y-89436000D02*
X161298000Y-89436000D01*
X159298000Y-90436000D02*
X161298000Y-90436000D01*
X159298000Y-91436000D02*
X161298000Y-91436000D01*
X159298000Y-92206000D02*
X158382493Y-92206000D01*
X161298000Y-88436000D02*
X161298000Y-88856000D01*
X161298000Y-88856000D02*
X159298000Y-88856000D01*
X161298000Y-89436000D02*
X161298000Y-89856000D01*
X161298000Y-89856000D02*
X159298000Y-89856000D01*
X161298000Y-90436000D02*
X161298000Y-90856000D01*
X161298000Y-90856000D02*
X159298000Y-90856000D01*
X161298000Y-91436000D02*
X161298000Y-91856000D01*
X161298000Y-91856000D02*
X159298000Y-91856000D01*
%LPC*%
D12*
X124714000Y-123178000D03*
X127814000Y-123178000D03*
D13*
X126746000Y-88346000D03*
D14*
X126746000Y-89346000D03*
X126746000Y-90346000D03*
X126746000Y-91346000D03*
X126746000Y-92346000D03*
X126746000Y-93346000D03*
X126746000Y-94346000D03*
X126746000Y-95346000D03*
X126746000Y-96346000D03*
X126746000Y-97346000D03*
X126746000Y-98346000D03*
X126746000Y-99346000D03*
X126746000Y-100346000D03*
X126746000Y-101346000D03*
D13*
X124311000Y-110188000D03*
D14*
X124311000Y-109188000D03*
X124311000Y-108188000D03*
X124311000Y-107188000D03*
X124311000Y-106188000D03*
X124311000Y-105188000D03*
X124311000Y-104188000D03*
D13*
X157226000Y-118872000D03*
D12*
X124714000Y-119888000D03*
X127814000Y-119888000D03*
D15*
X134620000Y-88392000D03*
D16*
X134620000Y-90932000D03*
X134620000Y-93472000D03*
X134620000Y-96012000D03*
X134620000Y-98552000D03*
X134620000Y-101092000D03*
X134620000Y-103632000D03*
X134620000Y-106172000D03*
X134620000Y-108712000D03*
X134620000Y-111252000D03*
X134620000Y-113792000D03*
X134620000Y-116332000D03*
X134620000Y-118872000D03*
X134620000Y-121412000D03*
X134620000Y-123952000D03*
X149860000Y-123952000D03*
X149860000Y-121412000D03*
X149860000Y-118872000D03*
X149860000Y-116332000D03*
X149860000Y-113792000D03*
X149860000Y-111252000D03*
X149860000Y-108712000D03*
X149860000Y-106172000D03*
X149860000Y-103632000D03*
X149860000Y-101092000D03*
X149860000Y-98552000D03*
X149860000Y-96012000D03*
X149860000Y-93472000D03*
X149860000Y-90932000D03*
X149860000Y-88392000D03*
D12*
X124714000Y-116598000D03*
X127814000Y-116598000D03*
D13*
X157226000Y-109332000D03*
D14*
X157226000Y-110332000D03*
X157226000Y-111332000D03*
X157226000Y-112332000D03*
X157226000Y-113332000D03*
X157226000Y-114332000D03*
X157226000Y-115332000D03*
X157226000Y-116332000D03*
D13*
X134144000Y-81788000D03*
D14*
X135144000Y-81788000D03*
X136144000Y-81788000D03*
X137144000Y-81788000D03*
X138144000Y-81788000D03*
X139144000Y-81788000D03*
X140144000Y-81788000D03*
D12*
X124714000Y-113308000D03*
X127814000Y-113308000D03*
D13*
X143050000Y-81788000D03*
D14*
X144050000Y-81788000D03*
X145050000Y-81788000D03*
X146050000Y-81788000D03*
X147050000Y-81788000D03*
X148050000Y-81788000D03*
X149050000Y-81788000D03*
D13*
X157988000Y-88646000D03*
D14*
X157988000Y-89646000D03*
X157988000Y-90646000D03*
X157988000Y-91646000D03*
%LPD*%
M02*
