M48
; DRILL file {KiCad 7.0.10} date Fri Jan 19 13:25:02 2024
; FORMAT={-:-/ absolute / metric / decimal}
; #@! TF.CreationDate,2024-01-19T13:25:02-08:00
; #@! TF.GenerationSoftware,Kicad,Pcbnew,7.0.10
; #@! TF.FileFunction,Plated,1,2,PTH
FMAT,2
METRIC
; #@! TA.AperFunction,Plated,PTH,ViaDrill
T1C0.400
; #@! TA.AperFunction,Plated,PTH,ComponentDrill
T2C1.000
%
G90
G05
T1
X137.16Y-113.03
X138.43Y-110.236
X140.462Y-103.632
X145.796Y-104.902
X152.654Y-94.498
X153.416Y-85.598
T2
X124.206Y-81.788
X125.984Y-94.996
X125.984Y-97.536
X125.984Y-100.076
X125.984Y-102.616
X125.984Y-105.156
X125.984Y-107.696
X125.984Y-110.236
X126.746Y-81.788
X129.286Y-81.788
X129.54Y-86.614
X130.556Y-93.472
X130.556Y-96.012
X130.556Y-98.552
X130.556Y-101.092
X130.556Y-103.632
X130.556Y-106.172
X130.556Y-108.712
X130.556Y-111.252
X130.556Y-113.792
X130.556Y-116.332
X130.556Y-118.872
X130.556Y-121.412
X130.556Y-123.952
X130.556Y-126.492
X131.826Y-81.788
X134.366Y-81.788
X134.62Y-88.392
X134.62Y-90.932
X134.62Y-93.472
X134.62Y-96.012
X134.62Y-98.552
X134.62Y-101.092
X134.62Y-103.632
X134.62Y-106.172
X134.62Y-108.712
X134.62Y-111.252
X134.62Y-113.792
X134.62Y-116.332
X134.62Y-118.872
X134.62Y-121.412
X134.62Y-123.952
X136.906Y-81.788
X139.446Y-81.788
X143.505Y-81.788
X146.045Y-81.788
X148.585Y-81.788
X149.86Y-88.392
X149.86Y-90.932
X149.86Y-93.472
X149.86Y-96.012
X149.86Y-98.552
X149.86Y-101.092
X149.86Y-103.632
X149.86Y-106.172
X149.86Y-108.712
X149.86Y-111.252
X149.86Y-113.792
X149.86Y-116.332
X149.86Y-118.872
X149.86Y-121.412
X149.86Y-123.952
X151.125Y-81.788
X153.665Y-81.788
X155.321Y-98.552
X155.321Y-101.092
X155.321Y-103.632
X155.321Y-106.172
X155.321Y-108.712
X155.321Y-111.252
X155.321Y-113.792
X155.321Y-116.332
X155.321Y-120.65
X156.205Y-81.788
X156.28Y-86.878
X156.28Y-89.418
X156.28Y-91.958
X156.28Y-94.498
X158.745Y-81.788
M30
