G04 #@! TF.GenerationSoftware,KiCad,Pcbnew,7.0.10*
G04 #@! TF.CreationDate,2024-01-19T13:24:59-08:00*
G04 #@! TF.ProjectId,Jettabrain,4a657474-6162-4726-9169-6e2e6b696361,rev?*
G04 #@! TF.SameCoordinates,Original*
G04 #@! TF.FileFunction,Legend,Bot*
G04 #@! TF.FilePolarity,Positive*
%FSLAX46Y46*%
G04 Gerber Fmt 4.6, Leading zero omitted, Abs format (unit mm)*
G04 Created by KiCad (PCBNEW 7.0.10) date 2024-01-19 13:24:59*
%MOMM*%
%LPD*%
G01*
G04 APERTURE LIST*
G04 Aperture macros list*
%AMRoundRect*
0 Rectangle with rounded corners*
0 $1 Rounding radius*
0 $2 $3 $4 $5 $6 $7 $8 $9 X,Y pos of 4 corners*
0 Add a 4 corners polygon primitive as box body*
4,1,4,$2,$3,$4,$5,$6,$7,$8,$9,$2,$3,0*
0 Add four circle primitives for the rounded corners*
1,1,$1+$1,$2,$3*
1,1,$1+$1,$4,$5*
1,1,$1+$1,$6,$7*
1,1,$1+$1,$8,$9*
0 Add four rect primitives between the rounded corners*
20,1,$1+$1,$2,$3,$4,$5,0*
20,1,$1+$1,$4,$5,$6,$7,0*
20,1,$1+$1,$6,$7,$8,$9,0*
20,1,$1+$1,$8,$9,$2,$3,0*%
G04 Aperture macros list end*
%ADD10C,0.150000*%
%ADD11C,0.120000*%
%ADD12R,1.700000X1.700000*%
%ADD13O,1.700000X1.700000*%
%ADD14R,1.600000X1.600000*%
%ADD15O,1.600000X1.600000*%
%ADD16RoundRect,0.250000X0.400000X0.625000X-0.400000X0.625000X-0.400000X-0.625000X0.400000X-0.625000X0*%
G04 APERTURE END LIST*
D10*
X146697506Y-91325819D02*
X146697506Y-92040104D01*
X146697506Y-92040104D02*
X146745125Y-92182961D01*
X146745125Y-92182961D02*
X146840363Y-92278200D01*
X146840363Y-92278200D02*
X146983220Y-92325819D01*
X146983220Y-92325819D02*
X147078458Y-92325819D01*
X145745125Y-92325819D02*
X146221315Y-92325819D01*
X146221315Y-92325819D02*
X146221315Y-91325819D01*
X144840363Y-92230580D02*
X144887982Y-92278200D01*
X144887982Y-92278200D02*
X145030839Y-92325819D01*
X145030839Y-92325819D02*
X145126077Y-92325819D01*
X145126077Y-92325819D02*
X145268934Y-92278200D01*
X145268934Y-92278200D02*
X145364172Y-92182961D01*
X145364172Y-92182961D02*
X145411791Y-92087723D01*
X145411791Y-92087723D02*
X145459410Y-91897247D01*
X145459410Y-91897247D02*
X145459410Y-91754390D01*
X145459410Y-91754390D02*
X145411791Y-91563914D01*
X145411791Y-91563914D02*
X145364172Y-91468676D01*
X145364172Y-91468676D02*
X145268934Y-91373438D01*
X145268934Y-91373438D02*
X145126077Y-91325819D01*
X145126077Y-91325819D02*
X145030839Y-91325819D01*
X145030839Y-91325819D02*
X144887982Y-91373438D01*
X144887982Y-91373438D02*
X144840363Y-91421057D01*
X144126077Y-91325819D02*
X144126077Y-92040104D01*
X144126077Y-92040104D02*
X144173696Y-92182961D01*
X144173696Y-92182961D02*
X144268934Y-92278200D01*
X144268934Y-92278200D02*
X144411791Y-92325819D01*
X144411791Y-92325819D02*
X144507029Y-92325819D01*
X143173696Y-92325819D02*
X143649886Y-92325819D01*
X143649886Y-92325819D02*
X143649886Y-91325819D01*
X142268934Y-92230580D02*
X142316553Y-92278200D01*
X142316553Y-92278200D02*
X142459410Y-92325819D01*
X142459410Y-92325819D02*
X142554648Y-92325819D01*
X142554648Y-92325819D02*
X142697505Y-92278200D01*
X142697505Y-92278200D02*
X142792743Y-92182961D01*
X142792743Y-92182961D02*
X142840362Y-92087723D01*
X142840362Y-92087723D02*
X142887981Y-91897247D01*
X142887981Y-91897247D02*
X142887981Y-91754390D01*
X142887981Y-91754390D02*
X142840362Y-91563914D01*
X142840362Y-91563914D02*
X142792743Y-91468676D01*
X142792743Y-91468676D02*
X142697505Y-91373438D01*
X142697505Y-91373438D02*
X142554648Y-91325819D01*
X142554648Y-91325819D02*
X142459410Y-91325819D01*
X142459410Y-91325819D02*
X142316553Y-91373438D01*
X142316553Y-91373438D02*
X142268934Y-91421057D01*
X141554648Y-91325819D02*
X141554648Y-92040104D01*
X141554648Y-92040104D02*
X141602267Y-92182961D01*
X141602267Y-92182961D02*
X141697505Y-92278200D01*
X141697505Y-92278200D02*
X141840362Y-92325819D01*
X141840362Y-92325819D02*
X141935600Y-92325819D01*
X140602267Y-92325819D02*
X141078457Y-92325819D01*
X141078457Y-92325819D02*
X141078457Y-91325819D01*
X139697505Y-92230580D02*
X139745124Y-92278200D01*
X139745124Y-92278200D02*
X139887981Y-92325819D01*
X139887981Y-92325819D02*
X139983219Y-92325819D01*
X139983219Y-92325819D02*
X140126076Y-92278200D01*
X140126076Y-92278200D02*
X140221314Y-92182961D01*
X140221314Y-92182961D02*
X140268933Y-92087723D01*
X140268933Y-92087723D02*
X140316552Y-91897247D01*
X140316552Y-91897247D02*
X140316552Y-91754390D01*
X140316552Y-91754390D02*
X140268933Y-91563914D01*
X140268933Y-91563914D02*
X140221314Y-91468676D01*
X140221314Y-91468676D02*
X140126076Y-91373438D01*
X140126076Y-91373438D02*
X139983219Y-91325819D01*
X139983219Y-91325819D02*
X139887981Y-91325819D01*
X139887981Y-91325819D02*
X139745124Y-91373438D01*
X139745124Y-91373438D02*
X139697505Y-91421057D01*
X138983219Y-91325819D02*
X138983219Y-92040104D01*
X138983219Y-92040104D02*
X139030838Y-92182961D01*
X139030838Y-92182961D02*
X139126076Y-92278200D01*
X139126076Y-92278200D02*
X139268933Y-92325819D01*
X139268933Y-92325819D02*
X139364171Y-92325819D01*
X138030838Y-92325819D02*
X138507028Y-92325819D01*
X138507028Y-92325819D02*
X138507028Y-91325819D01*
X137126076Y-92230580D02*
X137173695Y-92278200D01*
X137173695Y-92278200D02*
X137316552Y-92325819D01*
X137316552Y-92325819D02*
X137411790Y-92325819D01*
X137411790Y-92325819D02*
X137554647Y-92278200D01*
X137554647Y-92278200D02*
X137649885Y-92182961D01*
X137649885Y-92182961D02*
X137697504Y-92087723D01*
X137697504Y-92087723D02*
X137745123Y-91897247D01*
X137745123Y-91897247D02*
X137745123Y-91754390D01*
X137745123Y-91754390D02*
X137697504Y-91563914D01*
X137697504Y-91563914D02*
X137649885Y-91468676D01*
X137649885Y-91468676D02*
X137554647Y-91373438D01*
X137554647Y-91373438D02*
X137411790Y-91325819D01*
X137411790Y-91325819D02*
X137316552Y-91325819D01*
X137316552Y-91325819D02*
X137173695Y-91373438D01*
X137173695Y-91373438D02*
X137126076Y-91421057D01*
X130889333Y-90596819D02*
X130889333Y-91311104D01*
X130889333Y-91311104D02*
X130936952Y-91453961D01*
X130936952Y-91453961D02*
X131032190Y-91549200D01*
X131032190Y-91549200D02*
X131175047Y-91596819D01*
X131175047Y-91596819D02*
X131270285Y-91596819D01*
X129936952Y-90596819D02*
X130413142Y-90596819D01*
X130413142Y-90596819D02*
X130460761Y-91073009D01*
X130460761Y-91073009D02*
X130413142Y-91025390D01*
X130413142Y-91025390D02*
X130317904Y-90977771D01*
X130317904Y-90977771D02*
X130079809Y-90977771D01*
X130079809Y-90977771D02*
X129984571Y-91025390D01*
X129984571Y-91025390D02*
X129936952Y-91073009D01*
X129936952Y-91073009D02*
X129889333Y-91168247D01*
X129889333Y-91168247D02*
X129889333Y-91406342D01*
X129889333Y-91406342D02*
X129936952Y-91501580D01*
X129936952Y-91501580D02*
X129984571Y-91549200D01*
X129984571Y-91549200D02*
X130079809Y-91596819D01*
X130079809Y-91596819D02*
X130317904Y-91596819D01*
X130317904Y-91596819D02*
X130413142Y-91549200D01*
X130413142Y-91549200D02*
X130460761Y-91501580D01*
D11*
X142687064Y-116456000D02*
X141232936Y-116456000D01*
X142687064Y-114636000D02*
X141232936Y-114636000D01*
X131886000Y-127822000D02*
X129226000Y-127822000D01*
X131886000Y-94742000D02*
X131886000Y-127822000D01*
X131886000Y-94742000D02*
X129226000Y-94742000D01*
X131886000Y-93472000D02*
X131886000Y-92142000D01*
X131886000Y-92142000D02*
X130556000Y-92142000D01*
X129226000Y-94742000D02*
X129226000Y-127822000D01*
X142687064Y-113166000D02*
X141232936Y-113166000D01*
X142687064Y-111346000D02*
X141232936Y-111346000D01*
X142687064Y-109876000D02*
X141232936Y-109876000D01*
X142687064Y-108056000D02*
X141232936Y-108056000D01*
X142687064Y-106586000D02*
X141232936Y-106586000D01*
X142687064Y-104766000D02*
X141232936Y-104766000D01*
%LPC*%
D12*
X129540000Y-86614000D03*
X125984000Y-110236000D03*
D13*
X125984000Y-107696000D03*
X125984000Y-105156000D03*
X125984000Y-102616000D03*
X125984000Y-100076000D03*
X125984000Y-97536000D03*
X125984000Y-94996000D03*
D12*
X155321000Y-120650000D03*
D14*
X134620000Y-88392000D03*
D15*
X134620000Y-90932000D03*
X134620000Y-93472000D03*
X134620000Y-96012000D03*
X134620000Y-98552000D03*
X134620000Y-101092000D03*
X134620000Y-103632000D03*
X134620000Y-106172000D03*
X134620000Y-108712000D03*
X134620000Y-111252000D03*
X134620000Y-113792000D03*
X134620000Y-116332000D03*
X134620000Y-118872000D03*
X134620000Y-121412000D03*
X134620000Y-123952000D03*
X149860000Y-123952000D03*
X149860000Y-121412000D03*
X149860000Y-118872000D03*
X149860000Y-116332000D03*
X149860000Y-113792000D03*
X149860000Y-111252000D03*
X149860000Y-108712000D03*
X149860000Y-106172000D03*
X149860000Y-103632000D03*
X149860000Y-101092000D03*
X149860000Y-98552000D03*
X149860000Y-96012000D03*
X149860000Y-93472000D03*
X149860000Y-90932000D03*
X149860000Y-88392000D03*
D12*
X155321000Y-98552000D03*
D13*
X155321000Y-101092000D03*
X155321000Y-103632000D03*
X155321000Y-106172000D03*
X155321000Y-108712000D03*
X155321000Y-111252000D03*
X155321000Y-113792000D03*
X155321000Y-116332000D03*
D12*
X124206000Y-81788000D03*
D13*
X126746000Y-81788000D03*
X129286000Y-81788000D03*
X131826000Y-81788000D03*
X134366000Y-81788000D03*
X136906000Y-81788000D03*
X139446000Y-81788000D03*
D12*
X143505000Y-81788000D03*
D13*
X146045000Y-81788000D03*
X148585000Y-81788000D03*
X151125000Y-81788000D03*
X153665000Y-81788000D03*
X156205000Y-81788000D03*
X158745000Y-81788000D03*
D12*
X156280000Y-86878000D03*
D13*
X156280000Y-89418000D03*
X156280000Y-91958000D03*
X156280000Y-94498000D03*
D16*
X143510000Y-115546000D03*
X140410000Y-115546000D03*
D12*
X130556000Y-93472000D03*
D13*
X130556000Y-96012000D03*
X130556000Y-98552000D03*
X130556000Y-101092000D03*
X130556000Y-103632000D03*
X130556000Y-106172000D03*
X130556000Y-108712000D03*
X130556000Y-111252000D03*
X130556000Y-113792000D03*
X130556000Y-116332000D03*
X130556000Y-118872000D03*
X130556000Y-121412000D03*
X130556000Y-123952000D03*
X130556000Y-126492000D03*
D16*
X143510000Y-112256000D03*
X140410000Y-112256000D03*
X143510000Y-108966000D03*
X140410000Y-108966000D03*
X143510000Y-105676000D03*
X140410000Y-105676000D03*
%LPD*%
M02*
