G04 #@! TF.GenerationSoftware,KiCad,Pcbnew,7.0.10*
G04 #@! TF.CreationDate,2024-01-19T13:24:59-08:00*
G04 #@! TF.ProjectId,Jettabrain,4a657474-6162-4726-9169-6e2e6b696361,rev?*
G04 #@! TF.SameCoordinates,Original*
G04 #@! TF.FileFunction,Copper,L2,Bot*
G04 #@! TF.FilePolarity,Positive*
%FSLAX46Y46*%
G04 Gerber Fmt 4.6, Leading zero omitted, Abs format (unit mm)*
G04 Created by KiCad (PCBNEW 7.0.10) date 2024-01-19 13:24:59*
%MOMM*%
%LPD*%
G01*
G04 APERTURE LIST*
G04 Aperture macros list*
%AMRoundRect*
0 Rectangle with rounded corners*
0 $1 Rounding radius*
0 $2 $3 $4 $5 $6 $7 $8 $9 X,Y pos of 4 corners*
0 Add a 4 corners polygon primitive as box body*
4,1,4,$2,$3,$4,$5,$6,$7,$8,$9,$2,$3,0*
0 Add four circle primitives for the rounded corners*
1,1,$1+$1,$2,$3*
1,1,$1+$1,$4,$5*
1,1,$1+$1,$6,$7*
1,1,$1+$1,$8,$9*
0 Add four rect primitives between the rounded corners*
20,1,$1+$1,$2,$3,$4,$5,0*
20,1,$1+$1,$4,$5,$6,$7,0*
20,1,$1+$1,$6,$7,$8,$9,0*
20,1,$1+$1,$8,$9,$2,$3,0*%
G04 Aperture macros list end*
G04 #@! TA.AperFunction,ComponentPad*
%ADD10R,1.700000X1.700000*%
G04 #@! TD*
G04 #@! TA.AperFunction,ComponentPad*
%ADD11O,1.700000X1.700000*%
G04 #@! TD*
G04 #@! TA.AperFunction,ComponentPad*
%ADD12R,1.600000X1.600000*%
G04 #@! TD*
G04 #@! TA.AperFunction,ComponentPad*
%ADD13O,1.600000X1.600000*%
G04 #@! TD*
G04 #@! TA.AperFunction,SMDPad,CuDef*
%ADD14RoundRect,0.250000X0.400000X0.625000X-0.400000X0.625000X-0.400000X-0.625000X0.400000X-0.625000X0*%
G04 #@! TD*
G04 #@! TA.AperFunction,ViaPad*
%ADD15C,0.800000*%
G04 #@! TD*
G04 #@! TA.AperFunction,Conductor*
%ADD16C,0.250000*%
G04 #@! TD*
G04 APERTURE END LIST*
D10*
X129540000Y-86614000D03*
X125984000Y-110236000D03*
D11*
X125984000Y-107696000D03*
X125984000Y-105156000D03*
X125984000Y-102616000D03*
X125984000Y-100076000D03*
X125984000Y-97536000D03*
X125984000Y-94996000D03*
D10*
X155321000Y-120650000D03*
D12*
X134620000Y-88392000D03*
D13*
X134620000Y-90932000D03*
X134620000Y-93472000D03*
X134620000Y-96012000D03*
X134620000Y-98552000D03*
X134620000Y-101092000D03*
X134620000Y-103632000D03*
X134620000Y-106172000D03*
X134620000Y-108712000D03*
X134620000Y-111252000D03*
X134620000Y-113792000D03*
X134620000Y-116332000D03*
X134620000Y-118872000D03*
X134620000Y-121412000D03*
X134620000Y-123952000D03*
X149860000Y-123952000D03*
X149860000Y-121412000D03*
X149860000Y-118872000D03*
X149860000Y-116332000D03*
X149860000Y-113792000D03*
X149860000Y-111252000D03*
X149860000Y-108712000D03*
X149860000Y-106172000D03*
X149860000Y-103632000D03*
X149860000Y-101092000D03*
X149860000Y-98552000D03*
X149860000Y-96012000D03*
X149860000Y-93472000D03*
X149860000Y-90932000D03*
X149860000Y-88392000D03*
D10*
X155321000Y-98552000D03*
D11*
X155321000Y-101092000D03*
X155321000Y-103632000D03*
X155321000Y-106172000D03*
X155321000Y-108712000D03*
X155321000Y-111252000D03*
X155321000Y-113792000D03*
X155321000Y-116332000D03*
D10*
X124206000Y-81788000D03*
D11*
X126746000Y-81788000D03*
X129286000Y-81788000D03*
X131826000Y-81788000D03*
X134366000Y-81788000D03*
X136906000Y-81788000D03*
X139446000Y-81788000D03*
D10*
X143505000Y-81788000D03*
D11*
X146045000Y-81788000D03*
X148585000Y-81788000D03*
X151125000Y-81788000D03*
X153665000Y-81788000D03*
X156205000Y-81788000D03*
X158745000Y-81788000D03*
D10*
X156280000Y-86878000D03*
D11*
X156280000Y-89418000D03*
X156280000Y-91958000D03*
X156280000Y-94498000D03*
D14*
X143510000Y-115546000D03*
X140410000Y-115546000D03*
D10*
X130556000Y-93472000D03*
D11*
X130556000Y-96012000D03*
X130556000Y-98552000D03*
X130556000Y-101092000D03*
X130556000Y-103632000D03*
X130556000Y-106172000D03*
X130556000Y-108712000D03*
X130556000Y-111252000D03*
X130556000Y-113792000D03*
X130556000Y-116332000D03*
X130556000Y-118872000D03*
X130556000Y-121412000D03*
X130556000Y-123952000D03*
X130556000Y-126492000D03*
D14*
X143510000Y-112256000D03*
X140410000Y-112256000D03*
X143510000Y-108966000D03*
X140410000Y-108966000D03*
X143510000Y-105676000D03*
X140410000Y-105676000D03*
D15*
X153416000Y-85598000D03*
X152654000Y-94498000D03*
X137160000Y-113030000D03*
X138430000Y-110236000D03*
X145796000Y-104902000D03*
X140462000Y-103632000D03*
D16*
X153665000Y-81788000D02*
X156205000Y-81788000D01*
X143505000Y-81788000D02*
X143505000Y-83307000D01*
X143505000Y-81788000D02*
X146045000Y-81788000D01*
X151125000Y-81788000D02*
X153665000Y-81788000D01*
X144272000Y-84074000D02*
X151892000Y-84074000D01*
X156205000Y-81788000D02*
X158745000Y-81788000D01*
X151892000Y-84074000D02*
X153416000Y-85598000D01*
X143505000Y-83307000D02*
X144272000Y-84074000D01*
X148585000Y-81788000D02*
X151125000Y-81788000D01*
X146045000Y-81788000D02*
X148585000Y-81788000D01*
X152654000Y-94498000D02*
X151374000Y-94498000D01*
X151374000Y-94498000D02*
X149860000Y-96012000D01*
X130302000Y-93472000D02*
X131064000Y-93472000D01*
X134620000Y-88392000D02*
X130556000Y-92456000D01*
X130556000Y-92456000D02*
X130556000Y-93472000D01*
X132588000Y-92964000D02*
X132588000Y-93980000D01*
X132588000Y-93980000D02*
X130556000Y-96012000D01*
X134620000Y-90932000D02*
X132588000Y-92964000D01*
X143510000Y-108966000D02*
X143510000Y-112256000D01*
X134620000Y-96012000D02*
X143510000Y-104902000D01*
X143510000Y-112256000D02*
X143510000Y-115546000D01*
X143510000Y-105676000D02*
X143510000Y-108966000D01*
X143510000Y-104902000D02*
X143510000Y-105676000D01*
X130556000Y-98552000D02*
X134620000Y-98552000D01*
X134620000Y-101092000D02*
X130556000Y-101092000D01*
X129540000Y-101092000D02*
X130556000Y-101092000D01*
X125984000Y-97536000D02*
X129540000Y-101092000D01*
X130556000Y-103632000D02*
X134620000Y-103632000D01*
X134620000Y-106172000D02*
X130556000Y-106172000D01*
X130556000Y-108712000D02*
X134620000Y-108712000D01*
X130556000Y-111252000D02*
X134620000Y-111252000D01*
X134620000Y-113792000D02*
X130556000Y-113792000D01*
X130556000Y-116332000D02*
X134620000Y-116332000D01*
X140410000Y-115546000D02*
X135406000Y-115546000D01*
X135406000Y-115546000D02*
X134620000Y-116332000D01*
X134620000Y-118872000D02*
X130556000Y-118872000D01*
X137934000Y-112256000D02*
X137160000Y-113030000D01*
X140410000Y-112256000D02*
X140410000Y-112978000D01*
X140410000Y-112256000D02*
X137934000Y-112256000D01*
X125984000Y-94996000D02*
X123952000Y-97028000D01*
X130556000Y-121412000D02*
X134620000Y-121412000D01*
X123952000Y-114808000D02*
X130556000Y-121412000D01*
X123952000Y-97028000D02*
X123952000Y-114808000D01*
X140410000Y-108966000D02*
X139700000Y-108966000D01*
X139700000Y-108966000D02*
X138430000Y-110236000D01*
X134620000Y-123952000D02*
X130556000Y-123952000D01*
X140716000Y-123952000D02*
X149860000Y-123952000D01*
X140410000Y-103684000D02*
X140462000Y-103632000D01*
X145796000Y-104902000D02*
X145796000Y-119888000D01*
X140410000Y-105676000D02*
X140410000Y-103684000D01*
X145796000Y-119888000D02*
X149860000Y-123952000D01*
X130556000Y-126492000D02*
X138176000Y-126492000D01*
X138176000Y-126492000D02*
X140716000Y-123952000D01*
X129286000Y-81788000D02*
X126746000Y-81788000D01*
X156280000Y-91958000D02*
X150886000Y-91958000D01*
X126746000Y-81788000D02*
X124206000Y-81788000D01*
X148590000Y-90932000D02*
X149860000Y-90932000D01*
X134366000Y-81788000D02*
X131826000Y-81788000D01*
X136906000Y-81788000D02*
X134366000Y-81788000D01*
X131826000Y-81788000D02*
X129286000Y-81788000D01*
X150886000Y-91958000D02*
X149860000Y-90932000D01*
X139446000Y-81788000D02*
X148590000Y-90932000D01*
X139446000Y-81788000D02*
X136906000Y-81788000D01*
M02*
