M48
; DRILL file {KiCad 7.0.10} date Wed Jan 10 10:45:32 2024
; FORMAT={-:-/ absolute / metric / decimal}
; #@! TF.CreationDate,2024-01-10T10:45:32-08:00
; #@! TF.GenerationSoftware,Kicad,Pcbnew,7.0.10
; #@! TF.FileFunction,Plated,1,2,PTH
FMAT,2
METRIC
; #@! TA.AperFunction,Plated,PTH,ViaDrill
T1C0.400
; #@! TA.AperFunction,Plated,PTH,ComponentDrill
T2C0.500
; #@! TA.AperFunction,Plated,PTH,ComponentDrill
T3C1.000
%
G90
G05
T1
X126.746Y-111.506
X127.508Y-104.648
X128.016Y-106.68
X128.524Y-108.966
X128.914Y-110.626
X129.286Y-113.284
X130.302Y-117.602
X130.556Y-123.952
X136.652Y-113.03
X151.384Y-83.312
X153.162Y-90.17
X154.686Y-105.156
X155.485Y-101.854
T2
X124.311Y-104.188
X124.311Y-105.188
X124.311Y-106.188
X124.311Y-107.188
X124.311Y-108.188
X124.311Y-109.188
X124.311Y-110.188
X126.746Y-88.346
X126.746Y-89.346
X126.746Y-90.346
X126.746Y-91.346
X126.746Y-92.346
X126.746Y-93.346
X126.746Y-94.346
X126.746Y-95.346
X126.746Y-96.346
X126.746Y-97.346
X126.746Y-98.346
X126.746Y-99.346
X126.746Y-100.346
X126.746Y-101.346
X134.144Y-81.788
X135.144Y-81.788
X136.144Y-81.788
X137.144Y-81.788
X138.144Y-81.788
X139.144Y-81.788
X140.144Y-81.788
X143.05Y-81.788
X144.05Y-81.788
X145.05Y-81.788
X146.05Y-81.788
X147.05Y-81.788
X148.05Y-81.788
X149.05Y-81.788
X157.226Y-109.332
X157.226Y-110.332
X157.226Y-111.332
X157.226Y-112.332
X157.226Y-113.332
X157.226Y-114.332
X157.226Y-115.332
X157.226Y-116.332
X157.226Y-118.872
X157.988Y-88.646
X157.988Y-89.646
X157.988Y-90.646
X157.988Y-91.646
T3
X134.62Y-88.392
X134.62Y-90.932
X134.62Y-93.472
X134.62Y-96.012
X134.62Y-98.552
X134.62Y-101.092
X134.62Y-103.632
X134.62Y-106.172
X134.62Y-108.712
X134.62Y-111.252
X134.62Y-113.792
X134.62Y-116.332
X134.62Y-118.872
X134.62Y-121.412
X134.62Y-123.952
X149.86Y-88.392
X149.86Y-90.932
X149.86Y-93.472
X149.86Y-96.012
X149.86Y-98.552
X149.86Y-101.092
X149.86Y-103.632
X149.86Y-106.172
X149.86Y-108.712
X149.86Y-111.252
X149.86Y-113.792
X149.86Y-116.332
X149.86Y-118.872
X149.86Y-121.412
X149.86Y-123.952
M30
