%TF.GenerationSoftware,KiCad,Pcbnew,7.0.10*%
%TF.CreationDate,2024-01-18T21:32:10-08:00*%
%TF.ProjectId,Jettabrain,4a657474-6162-4726-9169-6e2e6b696361,rev?*%
%TF.SameCoordinates,Original*%
%TF.FileFunction,Drillmap*%
%TF.FilePolarity,Positive*%
%FSLAX45Y45*%
G04 Gerber Fmt 4.5, Leading zero omitted, Abs format (unit mm)*
G04 Created by KiCad (PCBNEW 7.0.10) date 2024-01-18 21:32:10*
%MOMM*%
%LPD*%
G01*
G04 APERTURE LIST*
%ADD10C,0.100000*%
%ADD11C,0.200000*%
G04 APERTURE END LIST*
D10*
X12217400Y-7747000D02*
X16027400Y-7747000D01*
X16027400Y-12827000D01*
X12217400Y-12827000D01*
X12217400Y-7747000D01*
D11*
D10*
X13696000Y-11283000D02*
X13736000Y-11323000D01*
X13736000Y-11283000D02*
X13696000Y-11323000D01*
X13823000Y-11003600D02*
X13863000Y-11043600D01*
X13863000Y-11003600D02*
X13823000Y-11043600D01*
X14026200Y-10343200D02*
X14066200Y-10383200D01*
X14066200Y-10343200D02*
X14026200Y-10383200D01*
X14559600Y-10470200D02*
X14599600Y-10510200D01*
X14599600Y-10470200D02*
X14559600Y-10510200D01*
X15245400Y-9429800D02*
X15285400Y-9469800D01*
X15285400Y-9429800D02*
X15245400Y-9469800D01*
X15321600Y-8539800D02*
X15361600Y-8579800D01*
X15361600Y-8539800D02*
X15321600Y-8579800D01*
X15423200Y-9022400D02*
X15463200Y-9062400D01*
X15463200Y-9022400D02*
X15423200Y-9062400D01*
X15423200Y-9606600D02*
X15463200Y-9646600D01*
X15463200Y-9606600D02*
X15423200Y-9646600D01*
X12470600Y-8178800D02*
G75*
G03*
X12370600Y-8178800I-50000J0D01*
G01*
X12370600Y-8178800D02*
G75*
G03*
X12470600Y-8178800I50000J0D01*
G01*
X12648400Y-9499600D02*
G75*
G03*
X12548400Y-9499600I-50000J0D01*
G01*
X12548400Y-9499600D02*
G75*
G03*
X12648400Y-9499600I50000J0D01*
G01*
X12648400Y-9753600D02*
G75*
G03*
X12548400Y-9753600I-50000J0D01*
G01*
X12548400Y-9753600D02*
G75*
G03*
X12648400Y-9753600I50000J0D01*
G01*
X12648400Y-10007600D02*
G75*
G03*
X12548400Y-10007600I-50000J0D01*
G01*
X12548400Y-10007600D02*
G75*
G03*
X12648400Y-10007600I50000J0D01*
G01*
X12648400Y-10261600D02*
G75*
G03*
X12548400Y-10261600I-50000J0D01*
G01*
X12548400Y-10261600D02*
G75*
G03*
X12648400Y-10261600I50000J0D01*
G01*
X12648400Y-10515600D02*
G75*
G03*
X12548400Y-10515600I-50000J0D01*
G01*
X12548400Y-10515600D02*
G75*
G03*
X12648400Y-10515600I50000J0D01*
G01*
X12648400Y-10769600D02*
G75*
G03*
X12548400Y-10769600I-50000J0D01*
G01*
X12548400Y-10769600D02*
G75*
G03*
X12648400Y-10769600I50000J0D01*
G01*
X12648400Y-11023600D02*
G75*
G03*
X12548400Y-11023600I-50000J0D01*
G01*
X12548400Y-11023600D02*
G75*
G03*
X12648400Y-11023600I50000J0D01*
G01*
X12724600Y-8178800D02*
G75*
G03*
X12624600Y-8178800I-50000J0D01*
G01*
X12624600Y-8178800D02*
G75*
G03*
X12724600Y-8178800I50000J0D01*
G01*
X12978600Y-8178800D02*
G75*
G03*
X12878600Y-8178800I-50000J0D01*
G01*
X12878600Y-8178800D02*
G75*
G03*
X12978600Y-8178800I50000J0D01*
G01*
X13004000Y-8661400D02*
G75*
G03*
X12904000Y-8661400I-50000J0D01*
G01*
X12904000Y-8661400D02*
G75*
G03*
X13004000Y-8661400I50000J0D01*
G01*
X13105600Y-9347200D02*
G75*
G03*
X13005600Y-9347200I-50000J0D01*
G01*
X13005600Y-9347200D02*
G75*
G03*
X13105600Y-9347200I50000J0D01*
G01*
X13105600Y-9601200D02*
G75*
G03*
X13005600Y-9601200I-50000J0D01*
G01*
X13005600Y-9601200D02*
G75*
G03*
X13105600Y-9601200I50000J0D01*
G01*
X13105600Y-9855200D02*
G75*
G03*
X13005600Y-9855200I-50000J0D01*
G01*
X13005600Y-9855200D02*
G75*
G03*
X13105600Y-9855200I50000J0D01*
G01*
X13105600Y-10109200D02*
G75*
G03*
X13005600Y-10109200I-50000J0D01*
G01*
X13005600Y-10109200D02*
G75*
G03*
X13105600Y-10109200I50000J0D01*
G01*
X13105600Y-10363200D02*
G75*
G03*
X13005600Y-10363200I-50000J0D01*
G01*
X13005600Y-10363200D02*
G75*
G03*
X13105600Y-10363200I50000J0D01*
G01*
X13105600Y-10617200D02*
G75*
G03*
X13005600Y-10617200I-50000J0D01*
G01*
X13005600Y-10617200D02*
G75*
G03*
X13105600Y-10617200I50000J0D01*
G01*
X13105600Y-10871200D02*
G75*
G03*
X13005600Y-10871200I-50000J0D01*
G01*
X13005600Y-10871200D02*
G75*
G03*
X13105600Y-10871200I50000J0D01*
G01*
X13105600Y-11125200D02*
G75*
G03*
X13005600Y-11125200I-50000J0D01*
G01*
X13005600Y-11125200D02*
G75*
G03*
X13105600Y-11125200I50000J0D01*
G01*
X13105600Y-11379200D02*
G75*
G03*
X13005600Y-11379200I-50000J0D01*
G01*
X13005600Y-11379200D02*
G75*
G03*
X13105600Y-11379200I50000J0D01*
G01*
X13105600Y-11633200D02*
G75*
G03*
X13005600Y-11633200I-50000J0D01*
G01*
X13005600Y-11633200D02*
G75*
G03*
X13105600Y-11633200I50000J0D01*
G01*
X13105600Y-11887200D02*
G75*
G03*
X13005600Y-11887200I-50000J0D01*
G01*
X13005600Y-11887200D02*
G75*
G03*
X13105600Y-11887200I50000J0D01*
G01*
X13105600Y-12141200D02*
G75*
G03*
X13005600Y-12141200I-50000J0D01*
G01*
X13005600Y-12141200D02*
G75*
G03*
X13105600Y-12141200I50000J0D01*
G01*
X13105600Y-12395200D02*
G75*
G03*
X13005600Y-12395200I-50000J0D01*
G01*
X13005600Y-12395200D02*
G75*
G03*
X13105600Y-12395200I50000J0D01*
G01*
X13105600Y-12649200D02*
G75*
G03*
X13005600Y-12649200I-50000J0D01*
G01*
X13005600Y-12649200D02*
G75*
G03*
X13105600Y-12649200I50000J0D01*
G01*
X13232600Y-8178800D02*
G75*
G03*
X13132600Y-8178800I-50000J0D01*
G01*
X13132600Y-8178800D02*
G75*
G03*
X13232600Y-8178800I50000J0D01*
G01*
X13486600Y-8178800D02*
G75*
G03*
X13386600Y-8178800I-50000J0D01*
G01*
X13386600Y-8178800D02*
G75*
G03*
X13486600Y-8178800I50000J0D01*
G01*
X13512000Y-8839200D02*
G75*
G03*
X13412000Y-8839200I-50000J0D01*
G01*
X13412000Y-8839200D02*
G75*
G03*
X13512000Y-8839200I50000J0D01*
G01*
X13512000Y-9093200D02*
G75*
G03*
X13412000Y-9093200I-50000J0D01*
G01*
X13412000Y-9093200D02*
G75*
G03*
X13512000Y-9093200I50000J0D01*
G01*
X13512000Y-9347200D02*
G75*
G03*
X13412000Y-9347200I-50000J0D01*
G01*
X13412000Y-9347200D02*
G75*
G03*
X13512000Y-9347200I50000J0D01*
G01*
X13512000Y-9601200D02*
G75*
G03*
X13412000Y-9601200I-50000J0D01*
G01*
X13412000Y-9601200D02*
G75*
G03*
X13512000Y-9601200I50000J0D01*
G01*
X13512000Y-9855200D02*
G75*
G03*
X13412000Y-9855200I-50000J0D01*
G01*
X13412000Y-9855200D02*
G75*
G03*
X13512000Y-9855200I50000J0D01*
G01*
X13512000Y-10109200D02*
G75*
G03*
X13412000Y-10109200I-50000J0D01*
G01*
X13412000Y-10109200D02*
G75*
G03*
X13512000Y-10109200I50000J0D01*
G01*
X13512000Y-10363200D02*
G75*
G03*
X13412000Y-10363200I-50000J0D01*
G01*
X13412000Y-10363200D02*
G75*
G03*
X13512000Y-10363200I50000J0D01*
G01*
X13512000Y-10617200D02*
G75*
G03*
X13412000Y-10617200I-50000J0D01*
G01*
X13412000Y-10617200D02*
G75*
G03*
X13512000Y-10617200I50000J0D01*
G01*
X13512000Y-10871200D02*
G75*
G03*
X13412000Y-10871200I-50000J0D01*
G01*
X13412000Y-10871200D02*
G75*
G03*
X13512000Y-10871200I50000J0D01*
G01*
X13512000Y-11125200D02*
G75*
G03*
X13412000Y-11125200I-50000J0D01*
G01*
X13412000Y-11125200D02*
G75*
G03*
X13512000Y-11125200I50000J0D01*
G01*
X13512000Y-11379200D02*
G75*
G03*
X13412000Y-11379200I-50000J0D01*
G01*
X13412000Y-11379200D02*
G75*
G03*
X13512000Y-11379200I50000J0D01*
G01*
X13512000Y-11633200D02*
G75*
G03*
X13412000Y-11633200I-50000J0D01*
G01*
X13412000Y-11633200D02*
G75*
G03*
X13512000Y-11633200I50000J0D01*
G01*
X13512000Y-11887200D02*
G75*
G03*
X13412000Y-11887200I-50000J0D01*
G01*
X13412000Y-11887200D02*
G75*
G03*
X13512000Y-11887200I50000J0D01*
G01*
X13512000Y-12141200D02*
G75*
G03*
X13412000Y-12141200I-50000J0D01*
G01*
X13412000Y-12141200D02*
G75*
G03*
X13512000Y-12141200I50000J0D01*
G01*
X13512000Y-12395200D02*
G75*
G03*
X13412000Y-12395200I-50000J0D01*
G01*
X13412000Y-12395200D02*
G75*
G03*
X13512000Y-12395200I50000J0D01*
G01*
X13740600Y-8178800D02*
G75*
G03*
X13640600Y-8178800I-50000J0D01*
G01*
X13640600Y-8178800D02*
G75*
G03*
X13740600Y-8178800I50000J0D01*
G01*
X13994600Y-8178800D02*
G75*
G03*
X13894600Y-8178800I-50000J0D01*
G01*
X13894600Y-8178800D02*
G75*
G03*
X13994600Y-8178800I50000J0D01*
G01*
X14400500Y-8178800D02*
G75*
G03*
X14300500Y-8178800I-50000J0D01*
G01*
X14300500Y-8178800D02*
G75*
G03*
X14400500Y-8178800I50000J0D01*
G01*
X14654500Y-8178800D02*
G75*
G03*
X14554500Y-8178800I-50000J0D01*
G01*
X14554500Y-8178800D02*
G75*
G03*
X14654500Y-8178800I50000J0D01*
G01*
X14908500Y-8178800D02*
G75*
G03*
X14808500Y-8178800I-50000J0D01*
G01*
X14808500Y-8178800D02*
G75*
G03*
X14908500Y-8178800I50000J0D01*
G01*
X15036000Y-8839200D02*
G75*
G03*
X14936000Y-8839200I-50000J0D01*
G01*
X14936000Y-8839200D02*
G75*
G03*
X15036000Y-8839200I50000J0D01*
G01*
X15036000Y-9093200D02*
G75*
G03*
X14936000Y-9093200I-50000J0D01*
G01*
X14936000Y-9093200D02*
G75*
G03*
X15036000Y-9093200I50000J0D01*
G01*
X15036000Y-9347200D02*
G75*
G03*
X14936000Y-9347200I-50000J0D01*
G01*
X14936000Y-9347200D02*
G75*
G03*
X15036000Y-9347200I50000J0D01*
G01*
X15036000Y-9601200D02*
G75*
G03*
X14936000Y-9601200I-50000J0D01*
G01*
X14936000Y-9601200D02*
G75*
G03*
X15036000Y-9601200I50000J0D01*
G01*
X15036000Y-9855200D02*
G75*
G03*
X14936000Y-9855200I-50000J0D01*
G01*
X14936000Y-9855200D02*
G75*
G03*
X15036000Y-9855200I50000J0D01*
G01*
X15036000Y-10109200D02*
G75*
G03*
X14936000Y-10109200I-50000J0D01*
G01*
X14936000Y-10109200D02*
G75*
G03*
X15036000Y-10109200I50000J0D01*
G01*
X15036000Y-10363200D02*
G75*
G03*
X14936000Y-10363200I-50000J0D01*
G01*
X14936000Y-10363200D02*
G75*
G03*
X15036000Y-10363200I50000J0D01*
G01*
X15036000Y-10617200D02*
G75*
G03*
X14936000Y-10617200I-50000J0D01*
G01*
X14936000Y-10617200D02*
G75*
G03*
X15036000Y-10617200I50000J0D01*
G01*
X15036000Y-10871200D02*
G75*
G03*
X14936000Y-10871200I-50000J0D01*
G01*
X14936000Y-10871200D02*
G75*
G03*
X15036000Y-10871200I50000J0D01*
G01*
X15036000Y-11125200D02*
G75*
G03*
X14936000Y-11125200I-50000J0D01*
G01*
X14936000Y-11125200D02*
G75*
G03*
X15036000Y-11125200I50000J0D01*
G01*
X15036000Y-11379200D02*
G75*
G03*
X14936000Y-11379200I-50000J0D01*
G01*
X14936000Y-11379200D02*
G75*
G03*
X15036000Y-11379200I50000J0D01*
G01*
X15036000Y-11633200D02*
G75*
G03*
X14936000Y-11633200I-50000J0D01*
G01*
X14936000Y-11633200D02*
G75*
G03*
X15036000Y-11633200I50000J0D01*
G01*
X15036000Y-11887200D02*
G75*
G03*
X14936000Y-11887200I-50000J0D01*
G01*
X14936000Y-11887200D02*
G75*
G03*
X15036000Y-11887200I50000J0D01*
G01*
X15036000Y-12141200D02*
G75*
G03*
X14936000Y-12141200I-50000J0D01*
G01*
X14936000Y-12141200D02*
G75*
G03*
X15036000Y-12141200I50000J0D01*
G01*
X15036000Y-12395200D02*
G75*
G03*
X14936000Y-12395200I-50000J0D01*
G01*
X14936000Y-12395200D02*
G75*
G03*
X15036000Y-12395200I50000J0D01*
G01*
X15162500Y-8178800D02*
G75*
G03*
X15062500Y-8178800I-50000J0D01*
G01*
X15062500Y-8178800D02*
G75*
G03*
X15162500Y-8178800I50000J0D01*
G01*
X15416500Y-8178800D02*
G75*
G03*
X15316500Y-8178800I-50000J0D01*
G01*
X15316500Y-8178800D02*
G75*
G03*
X15416500Y-8178800I50000J0D01*
G01*
X15670500Y-8178800D02*
G75*
G03*
X15570500Y-8178800I-50000J0D01*
G01*
X15570500Y-8178800D02*
G75*
G03*
X15670500Y-8178800I50000J0D01*
G01*
X15766900Y-8687800D02*
G75*
G03*
X15666900Y-8687800I-50000J0D01*
G01*
X15666900Y-8687800D02*
G75*
G03*
X15766900Y-8687800I50000J0D01*
G01*
X15766900Y-8941800D02*
G75*
G03*
X15666900Y-8941800I-50000J0D01*
G01*
X15666900Y-8941800D02*
G75*
G03*
X15766900Y-8941800I50000J0D01*
G01*
X15766900Y-9195800D02*
G75*
G03*
X15666900Y-9195800I-50000J0D01*
G01*
X15666900Y-9195800D02*
G75*
G03*
X15766900Y-9195800I50000J0D01*
G01*
X15766900Y-9449800D02*
G75*
G03*
X15666900Y-9449800I-50000J0D01*
G01*
X15666900Y-9449800D02*
G75*
G03*
X15766900Y-9449800I50000J0D01*
G01*
X15772600Y-9855200D02*
G75*
G03*
X15672600Y-9855200I-50000J0D01*
G01*
X15672600Y-9855200D02*
G75*
G03*
X15772600Y-9855200I50000J0D01*
G01*
X15772600Y-10109200D02*
G75*
G03*
X15672600Y-10109200I-50000J0D01*
G01*
X15672600Y-10109200D02*
G75*
G03*
X15772600Y-10109200I50000J0D01*
G01*
X15772600Y-10363200D02*
G75*
G03*
X15672600Y-10363200I-50000J0D01*
G01*
X15672600Y-10363200D02*
G75*
G03*
X15772600Y-10363200I50000J0D01*
G01*
X15772600Y-10617200D02*
G75*
G03*
X15672600Y-10617200I-50000J0D01*
G01*
X15672600Y-10617200D02*
G75*
G03*
X15772600Y-10617200I50000J0D01*
G01*
X15772600Y-10871200D02*
G75*
G03*
X15672600Y-10871200I-50000J0D01*
G01*
X15672600Y-10871200D02*
G75*
G03*
X15772600Y-10871200I50000J0D01*
G01*
X15772600Y-11125200D02*
G75*
G03*
X15672600Y-11125200I-50000J0D01*
G01*
X15672600Y-11125200D02*
G75*
G03*
X15772600Y-11125200I50000J0D01*
G01*
X15772600Y-11379200D02*
G75*
G03*
X15672600Y-11379200I-50000J0D01*
G01*
X15672600Y-11379200D02*
G75*
G03*
X15772600Y-11379200I50000J0D01*
G01*
X15772600Y-11633200D02*
G75*
G03*
X15672600Y-11633200I-50000J0D01*
G01*
X15672600Y-11633200D02*
G75*
G03*
X15772600Y-11633200I50000J0D01*
G01*
X15772600Y-12065000D02*
G75*
G03*
X15672600Y-12065000I-50000J0D01*
G01*
X15672600Y-12065000D02*
G75*
G03*
X15772600Y-12065000I50000J0D01*
G01*
X15924500Y-8178800D02*
G75*
G03*
X15824500Y-8178800I-50000J0D01*
G01*
X15824500Y-8178800D02*
G75*
G03*
X15924500Y-8178800I50000J0D01*
G01*
D11*
X12473177Y-13143484D02*
X12473177Y-12943484D01*
X12473177Y-12943484D02*
X12520796Y-12943484D01*
X12520796Y-12943484D02*
X12549367Y-12953008D01*
X12549367Y-12953008D02*
X12568415Y-12972055D01*
X12568415Y-12972055D02*
X12577939Y-12991103D01*
X12577939Y-12991103D02*
X12587462Y-13029198D01*
X12587462Y-13029198D02*
X12587462Y-13057769D01*
X12587462Y-13057769D02*
X12577939Y-13095865D01*
X12577939Y-13095865D02*
X12568415Y-13114912D01*
X12568415Y-13114912D02*
X12549367Y-13133960D01*
X12549367Y-13133960D02*
X12520796Y-13143484D01*
X12520796Y-13143484D02*
X12473177Y-13143484D01*
X12673177Y-13143484D02*
X12673177Y-13010150D01*
X12673177Y-13048246D02*
X12682701Y-13029198D01*
X12682701Y-13029198D02*
X12692224Y-13019674D01*
X12692224Y-13019674D02*
X12711272Y-13010150D01*
X12711272Y-13010150D02*
X12730320Y-13010150D01*
X12796986Y-13143484D02*
X12796986Y-13010150D01*
X12796986Y-12943484D02*
X12787462Y-12953008D01*
X12787462Y-12953008D02*
X12796986Y-12962531D01*
X12796986Y-12962531D02*
X12806510Y-12953008D01*
X12806510Y-12953008D02*
X12796986Y-12943484D01*
X12796986Y-12943484D02*
X12796986Y-12962531D01*
X12920796Y-13143484D02*
X12901748Y-13133960D01*
X12901748Y-13133960D02*
X12892224Y-13114912D01*
X12892224Y-13114912D02*
X12892224Y-12943484D01*
X13025558Y-13143484D02*
X13006510Y-13133960D01*
X13006510Y-13133960D02*
X12996986Y-13114912D01*
X12996986Y-13114912D02*
X12996986Y-12943484D01*
X13254129Y-13143484D02*
X13254129Y-12943484D01*
X13254129Y-12943484D02*
X13320796Y-13086341D01*
X13320796Y-13086341D02*
X13387462Y-12943484D01*
X13387462Y-12943484D02*
X13387462Y-13143484D01*
X13568415Y-13143484D02*
X13568415Y-13038722D01*
X13568415Y-13038722D02*
X13558891Y-13019674D01*
X13558891Y-13019674D02*
X13539843Y-13010150D01*
X13539843Y-13010150D02*
X13501748Y-13010150D01*
X13501748Y-13010150D02*
X13482701Y-13019674D01*
X13568415Y-13133960D02*
X13549367Y-13143484D01*
X13549367Y-13143484D02*
X13501748Y-13143484D01*
X13501748Y-13143484D02*
X13482701Y-13133960D01*
X13482701Y-13133960D02*
X13473177Y-13114912D01*
X13473177Y-13114912D02*
X13473177Y-13095865D01*
X13473177Y-13095865D02*
X13482701Y-13076817D01*
X13482701Y-13076817D02*
X13501748Y-13067293D01*
X13501748Y-13067293D02*
X13549367Y-13067293D01*
X13549367Y-13067293D02*
X13568415Y-13057769D01*
X13663653Y-13010150D02*
X13663653Y-13210150D01*
X13663653Y-13019674D02*
X13682701Y-13010150D01*
X13682701Y-13010150D02*
X13720796Y-13010150D01*
X13720796Y-13010150D02*
X13739843Y-13019674D01*
X13739843Y-13019674D02*
X13749367Y-13029198D01*
X13749367Y-13029198D02*
X13758891Y-13048246D01*
X13758891Y-13048246D02*
X13758891Y-13105388D01*
X13758891Y-13105388D02*
X13749367Y-13124436D01*
X13749367Y-13124436D02*
X13739843Y-13133960D01*
X13739843Y-13133960D02*
X13720796Y-13143484D01*
X13720796Y-13143484D02*
X13682701Y-13143484D01*
X13682701Y-13143484D02*
X13663653Y-13133960D01*
X13844605Y-13124436D02*
X13854129Y-13133960D01*
X13854129Y-13133960D02*
X13844605Y-13143484D01*
X13844605Y-13143484D02*
X13835082Y-13133960D01*
X13835082Y-13133960D02*
X13844605Y-13124436D01*
X13844605Y-13124436D02*
X13844605Y-13143484D01*
X13844605Y-13019674D02*
X13854129Y-13029198D01*
X13854129Y-13029198D02*
X13844605Y-13038722D01*
X13844605Y-13038722D02*
X13835082Y-13029198D01*
X13835082Y-13029198D02*
X13844605Y-13019674D01*
X13844605Y-13019674D02*
X13844605Y-13038722D01*
D10*
X12172400Y-13452000D02*
X12212400Y-13492000D01*
X12212400Y-13452000D02*
X12172400Y-13492000D01*
D11*
X12511272Y-13363484D02*
X12530320Y-13363484D01*
X12530320Y-13363484D02*
X12549367Y-13373008D01*
X12549367Y-13373008D02*
X12558891Y-13382531D01*
X12558891Y-13382531D02*
X12568415Y-13401579D01*
X12568415Y-13401579D02*
X12577939Y-13439674D01*
X12577939Y-13439674D02*
X12577939Y-13487293D01*
X12577939Y-13487293D02*
X12568415Y-13525388D01*
X12568415Y-13525388D02*
X12558891Y-13544436D01*
X12558891Y-13544436D02*
X12549367Y-13553960D01*
X12549367Y-13553960D02*
X12530320Y-13563484D01*
X12530320Y-13563484D02*
X12511272Y-13563484D01*
X12511272Y-13563484D02*
X12492224Y-13553960D01*
X12492224Y-13553960D02*
X12482701Y-13544436D01*
X12482701Y-13544436D02*
X12473177Y-13525388D01*
X12473177Y-13525388D02*
X12463653Y-13487293D01*
X12463653Y-13487293D02*
X12463653Y-13439674D01*
X12463653Y-13439674D02*
X12473177Y-13401579D01*
X12473177Y-13401579D02*
X12482701Y-13382531D01*
X12482701Y-13382531D02*
X12492224Y-13373008D01*
X12492224Y-13373008D02*
X12511272Y-13363484D01*
X12663653Y-13544436D02*
X12673177Y-13553960D01*
X12673177Y-13553960D02*
X12663653Y-13563484D01*
X12663653Y-13563484D02*
X12654129Y-13553960D01*
X12654129Y-13553960D02*
X12663653Y-13544436D01*
X12663653Y-13544436D02*
X12663653Y-13563484D01*
X12844605Y-13430150D02*
X12844605Y-13563484D01*
X12796986Y-13353960D02*
X12749367Y-13496817D01*
X12749367Y-13496817D02*
X12873177Y-13496817D01*
X12987462Y-13363484D02*
X13006510Y-13363484D01*
X13006510Y-13363484D02*
X13025558Y-13373008D01*
X13025558Y-13373008D02*
X13035082Y-13382531D01*
X13035082Y-13382531D02*
X13044605Y-13401579D01*
X13044605Y-13401579D02*
X13054129Y-13439674D01*
X13054129Y-13439674D02*
X13054129Y-13487293D01*
X13054129Y-13487293D02*
X13044605Y-13525388D01*
X13044605Y-13525388D02*
X13035082Y-13544436D01*
X13035082Y-13544436D02*
X13025558Y-13553960D01*
X13025558Y-13553960D02*
X13006510Y-13563484D01*
X13006510Y-13563484D02*
X12987462Y-13563484D01*
X12987462Y-13563484D02*
X12968415Y-13553960D01*
X12968415Y-13553960D02*
X12958891Y-13544436D01*
X12958891Y-13544436D02*
X12949367Y-13525388D01*
X12949367Y-13525388D02*
X12939843Y-13487293D01*
X12939843Y-13487293D02*
X12939843Y-13439674D01*
X12939843Y-13439674D02*
X12949367Y-13401579D01*
X12949367Y-13401579D02*
X12958891Y-13382531D01*
X12958891Y-13382531D02*
X12968415Y-13373008D01*
X12968415Y-13373008D02*
X12987462Y-13363484D01*
X13177939Y-13363484D02*
X13196986Y-13363484D01*
X13196986Y-13363484D02*
X13216034Y-13373008D01*
X13216034Y-13373008D02*
X13225558Y-13382531D01*
X13225558Y-13382531D02*
X13235082Y-13401579D01*
X13235082Y-13401579D02*
X13244605Y-13439674D01*
X13244605Y-13439674D02*
X13244605Y-13487293D01*
X13244605Y-13487293D02*
X13235082Y-13525388D01*
X13235082Y-13525388D02*
X13225558Y-13544436D01*
X13225558Y-13544436D02*
X13216034Y-13553960D01*
X13216034Y-13553960D02*
X13196986Y-13563484D01*
X13196986Y-13563484D02*
X13177939Y-13563484D01*
X13177939Y-13563484D02*
X13158891Y-13553960D01*
X13158891Y-13553960D02*
X13149367Y-13544436D01*
X13149367Y-13544436D02*
X13139843Y-13525388D01*
X13139843Y-13525388D02*
X13130320Y-13487293D01*
X13130320Y-13487293D02*
X13130320Y-13439674D01*
X13130320Y-13439674D02*
X13139843Y-13401579D01*
X13139843Y-13401579D02*
X13149367Y-13382531D01*
X13149367Y-13382531D02*
X13158891Y-13373008D01*
X13158891Y-13373008D02*
X13177939Y-13363484D01*
X13330320Y-13563484D02*
X13330320Y-13430150D01*
X13330320Y-13449198D02*
X13339843Y-13439674D01*
X13339843Y-13439674D02*
X13358891Y-13430150D01*
X13358891Y-13430150D02*
X13387463Y-13430150D01*
X13387463Y-13430150D02*
X13406510Y-13439674D01*
X13406510Y-13439674D02*
X13416034Y-13458722D01*
X13416034Y-13458722D02*
X13416034Y-13563484D01*
X13416034Y-13458722D02*
X13425558Y-13439674D01*
X13425558Y-13439674D02*
X13444605Y-13430150D01*
X13444605Y-13430150D02*
X13473177Y-13430150D01*
X13473177Y-13430150D02*
X13492224Y-13439674D01*
X13492224Y-13439674D02*
X13501748Y-13458722D01*
X13501748Y-13458722D02*
X13501748Y-13563484D01*
X13596986Y-13563484D02*
X13596986Y-13430150D01*
X13596986Y-13449198D02*
X13606510Y-13439674D01*
X13606510Y-13439674D02*
X13625558Y-13430150D01*
X13625558Y-13430150D02*
X13654129Y-13430150D01*
X13654129Y-13430150D02*
X13673177Y-13439674D01*
X13673177Y-13439674D02*
X13682701Y-13458722D01*
X13682701Y-13458722D02*
X13682701Y-13563484D01*
X13682701Y-13458722D02*
X13692224Y-13439674D01*
X13692224Y-13439674D02*
X13711272Y-13430150D01*
X13711272Y-13430150D02*
X13739843Y-13430150D01*
X13739843Y-13430150D02*
X13758891Y-13439674D01*
X13758891Y-13439674D02*
X13768415Y-13458722D01*
X13768415Y-13458722D02*
X13768415Y-13563484D01*
X14158891Y-13353960D02*
X13987463Y-13611103D01*
X14416034Y-13363484D02*
X14435082Y-13363484D01*
X14435082Y-13363484D02*
X14454129Y-13373008D01*
X14454129Y-13373008D02*
X14463653Y-13382531D01*
X14463653Y-13382531D02*
X14473177Y-13401579D01*
X14473177Y-13401579D02*
X14482701Y-13439674D01*
X14482701Y-13439674D02*
X14482701Y-13487293D01*
X14482701Y-13487293D02*
X14473177Y-13525388D01*
X14473177Y-13525388D02*
X14463653Y-13544436D01*
X14463653Y-13544436D02*
X14454129Y-13553960D01*
X14454129Y-13553960D02*
X14435082Y-13563484D01*
X14435082Y-13563484D02*
X14416034Y-13563484D01*
X14416034Y-13563484D02*
X14396986Y-13553960D01*
X14396986Y-13553960D02*
X14387463Y-13544436D01*
X14387463Y-13544436D02*
X14377939Y-13525388D01*
X14377939Y-13525388D02*
X14368415Y-13487293D01*
X14368415Y-13487293D02*
X14368415Y-13439674D01*
X14368415Y-13439674D02*
X14377939Y-13401579D01*
X14377939Y-13401579D02*
X14387463Y-13382531D01*
X14387463Y-13382531D02*
X14396986Y-13373008D01*
X14396986Y-13373008D02*
X14416034Y-13363484D01*
X14568415Y-13544436D02*
X14577939Y-13553960D01*
X14577939Y-13553960D02*
X14568415Y-13563484D01*
X14568415Y-13563484D02*
X14558891Y-13553960D01*
X14558891Y-13553960D02*
X14568415Y-13544436D01*
X14568415Y-13544436D02*
X14568415Y-13563484D01*
X14701748Y-13363484D02*
X14720796Y-13363484D01*
X14720796Y-13363484D02*
X14739844Y-13373008D01*
X14739844Y-13373008D02*
X14749367Y-13382531D01*
X14749367Y-13382531D02*
X14758891Y-13401579D01*
X14758891Y-13401579D02*
X14768415Y-13439674D01*
X14768415Y-13439674D02*
X14768415Y-13487293D01*
X14768415Y-13487293D02*
X14758891Y-13525388D01*
X14758891Y-13525388D02*
X14749367Y-13544436D01*
X14749367Y-13544436D02*
X14739844Y-13553960D01*
X14739844Y-13553960D02*
X14720796Y-13563484D01*
X14720796Y-13563484D02*
X14701748Y-13563484D01*
X14701748Y-13563484D02*
X14682701Y-13553960D01*
X14682701Y-13553960D02*
X14673177Y-13544436D01*
X14673177Y-13544436D02*
X14663653Y-13525388D01*
X14663653Y-13525388D02*
X14654129Y-13487293D01*
X14654129Y-13487293D02*
X14654129Y-13439674D01*
X14654129Y-13439674D02*
X14663653Y-13401579D01*
X14663653Y-13401579D02*
X14673177Y-13382531D01*
X14673177Y-13382531D02*
X14682701Y-13373008D01*
X14682701Y-13373008D02*
X14701748Y-13363484D01*
X14958891Y-13563484D02*
X14844606Y-13563484D01*
X14901748Y-13563484D02*
X14901748Y-13363484D01*
X14901748Y-13363484D02*
X14882701Y-13392055D01*
X14882701Y-13392055D02*
X14863653Y-13411103D01*
X14863653Y-13411103D02*
X14844606Y-13420627D01*
X15139844Y-13363484D02*
X15044606Y-13363484D01*
X15044606Y-13363484D02*
X15035082Y-13458722D01*
X15035082Y-13458722D02*
X15044606Y-13449198D01*
X15044606Y-13449198D02*
X15063653Y-13439674D01*
X15063653Y-13439674D02*
X15111272Y-13439674D01*
X15111272Y-13439674D02*
X15130320Y-13449198D01*
X15130320Y-13449198D02*
X15139844Y-13458722D01*
X15139844Y-13458722D02*
X15149367Y-13477769D01*
X15149367Y-13477769D02*
X15149367Y-13525388D01*
X15149367Y-13525388D02*
X15139844Y-13544436D01*
X15139844Y-13544436D02*
X15130320Y-13553960D01*
X15130320Y-13553960D02*
X15111272Y-13563484D01*
X15111272Y-13563484D02*
X15063653Y-13563484D01*
X15063653Y-13563484D02*
X15044606Y-13553960D01*
X15044606Y-13553960D02*
X15035082Y-13544436D01*
X15216034Y-13363484D02*
X15349367Y-13363484D01*
X15349367Y-13363484D02*
X15263653Y-13563484D01*
X15416034Y-13363484D02*
X15416034Y-13401579D01*
X15492225Y-13363484D02*
X15492225Y-13401579D01*
X15787463Y-13639674D02*
X15777939Y-13630150D01*
X15777939Y-13630150D02*
X15758891Y-13601579D01*
X15758891Y-13601579D02*
X15749368Y-13582531D01*
X15749368Y-13582531D02*
X15739844Y-13553960D01*
X15739844Y-13553960D02*
X15730320Y-13506341D01*
X15730320Y-13506341D02*
X15730320Y-13468246D01*
X15730320Y-13468246D02*
X15739844Y-13420627D01*
X15739844Y-13420627D02*
X15749368Y-13392055D01*
X15749368Y-13392055D02*
X15758891Y-13373008D01*
X15758891Y-13373008D02*
X15777939Y-13344436D01*
X15777939Y-13344436D02*
X15787463Y-13334912D01*
X15892225Y-13449198D02*
X15873177Y-13439674D01*
X15873177Y-13439674D02*
X15863653Y-13430150D01*
X15863653Y-13430150D02*
X15854129Y-13411103D01*
X15854129Y-13411103D02*
X15854129Y-13401579D01*
X15854129Y-13401579D02*
X15863653Y-13382531D01*
X15863653Y-13382531D02*
X15873177Y-13373008D01*
X15873177Y-13373008D02*
X15892225Y-13363484D01*
X15892225Y-13363484D02*
X15930320Y-13363484D01*
X15930320Y-13363484D02*
X15949368Y-13373008D01*
X15949368Y-13373008D02*
X15958891Y-13382531D01*
X15958891Y-13382531D02*
X15968415Y-13401579D01*
X15968415Y-13401579D02*
X15968415Y-13411103D01*
X15968415Y-13411103D02*
X15958891Y-13430150D01*
X15958891Y-13430150D02*
X15949368Y-13439674D01*
X15949368Y-13439674D02*
X15930320Y-13449198D01*
X15930320Y-13449198D02*
X15892225Y-13449198D01*
X15892225Y-13449198D02*
X15873177Y-13458722D01*
X15873177Y-13458722D02*
X15863653Y-13468246D01*
X15863653Y-13468246D02*
X15854129Y-13487293D01*
X15854129Y-13487293D02*
X15854129Y-13525388D01*
X15854129Y-13525388D02*
X15863653Y-13544436D01*
X15863653Y-13544436D02*
X15873177Y-13553960D01*
X15873177Y-13553960D02*
X15892225Y-13563484D01*
X15892225Y-13563484D02*
X15930320Y-13563484D01*
X15930320Y-13563484D02*
X15949368Y-13553960D01*
X15949368Y-13553960D02*
X15958891Y-13544436D01*
X15958891Y-13544436D02*
X15968415Y-13525388D01*
X15968415Y-13525388D02*
X15968415Y-13487293D01*
X15968415Y-13487293D02*
X15958891Y-13468246D01*
X15958891Y-13468246D02*
X15949368Y-13458722D01*
X15949368Y-13458722D02*
X15930320Y-13449198D01*
X16206510Y-13563484D02*
X16206510Y-13363484D01*
X16292225Y-13563484D02*
X16292225Y-13458722D01*
X16292225Y-13458722D02*
X16282701Y-13439674D01*
X16282701Y-13439674D02*
X16263653Y-13430150D01*
X16263653Y-13430150D02*
X16235082Y-13430150D01*
X16235082Y-13430150D02*
X16216034Y-13439674D01*
X16216034Y-13439674D02*
X16206510Y-13449198D01*
X16416034Y-13563484D02*
X16396987Y-13553960D01*
X16396987Y-13553960D02*
X16387463Y-13544436D01*
X16387463Y-13544436D02*
X16377939Y-13525388D01*
X16377939Y-13525388D02*
X16377939Y-13468246D01*
X16377939Y-13468246D02*
X16387463Y-13449198D01*
X16387463Y-13449198D02*
X16396987Y-13439674D01*
X16396987Y-13439674D02*
X16416034Y-13430150D01*
X16416034Y-13430150D02*
X16444606Y-13430150D01*
X16444606Y-13430150D02*
X16463653Y-13439674D01*
X16463653Y-13439674D02*
X16473177Y-13449198D01*
X16473177Y-13449198D02*
X16482701Y-13468246D01*
X16482701Y-13468246D02*
X16482701Y-13525388D01*
X16482701Y-13525388D02*
X16473177Y-13544436D01*
X16473177Y-13544436D02*
X16463653Y-13553960D01*
X16463653Y-13553960D02*
X16444606Y-13563484D01*
X16444606Y-13563484D02*
X16416034Y-13563484D01*
X16596987Y-13563484D02*
X16577939Y-13553960D01*
X16577939Y-13553960D02*
X16568415Y-13534912D01*
X16568415Y-13534912D02*
X16568415Y-13363484D01*
X16749368Y-13553960D02*
X16730320Y-13563484D01*
X16730320Y-13563484D02*
X16692225Y-13563484D01*
X16692225Y-13563484D02*
X16673177Y-13553960D01*
X16673177Y-13553960D02*
X16663653Y-13534912D01*
X16663653Y-13534912D02*
X16663653Y-13458722D01*
X16663653Y-13458722D02*
X16673177Y-13439674D01*
X16673177Y-13439674D02*
X16692225Y-13430150D01*
X16692225Y-13430150D02*
X16730320Y-13430150D01*
X16730320Y-13430150D02*
X16749368Y-13439674D01*
X16749368Y-13439674D02*
X16758891Y-13458722D01*
X16758891Y-13458722D02*
X16758891Y-13477769D01*
X16758891Y-13477769D02*
X16663653Y-13496817D01*
X16835082Y-13553960D02*
X16854130Y-13563484D01*
X16854130Y-13563484D02*
X16892225Y-13563484D01*
X16892225Y-13563484D02*
X16911273Y-13553960D01*
X16911273Y-13553960D02*
X16920796Y-13534912D01*
X16920796Y-13534912D02*
X16920796Y-13525388D01*
X16920796Y-13525388D02*
X16911273Y-13506341D01*
X16911273Y-13506341D02*
X16892225Y-13496817D01*
X16892225Y-13496817D02*
X16863653Y-13496817D01*
X16863653Y-13496817D02*
X16844606Y-13487293D01*
X16844606Y-13487293D02*
X16835082Y-13468246D01*
X16835082Y-13468246D02*
X16835082Y-13458722D01*
X16835082Y-13458722D02*
X16844606Y-13439674D01*
X16844606Y-13439674D02*
X16863653Y-13430150D01*
X16863653Y-13430150D02*
X16892225Y-13430150D01*
X16892225Y-13430150D02*
X16911273Y-13439674D01*
X16987463Y-13639674D02*
X16996987Y-13630150D01*
X16996987Y-13630150D02*
X17016034Y-13601579D01*
X17016034Y-13601579D02*
X17025558Y-13582531D01*
X17025558Y-13582531D02*
X17035082Y-13553960D01*
X17035082Y-13553960D02*
X17044606Y-13506341D01*
X17044606Y-13506341D02*
X17044606Y-13468246D01*
X17044606Y-13468246D02*
X17035082Y-13420627D01*
X17035082Y-13420627D02*
X17025558Y-13392055D01*
X17025558Y-13392055D02*
X17016034Y-13373008D01*
X17016034Y-13373008D02*
X16996987Y-13344436D01*
X16996987Y-13344436D02*
X16987463Y-13334912D01*
D10*
X12212400Y-13736000D02*
G75*
G03*
X12112400Y-13736000I-50000J0D01*
G01*
X12112400Y-13736000D02*
G75*
G03*
X12212400Y-13736000I50000J0D01*
G01*
D11*
X12577939Y-13827484D02*
X12463653Y-13827484D01*
X12520796Y-13827484D02*
X12520796Y-13627484D01*
X12520796Y-13627484D02*
X12501748Y-13656055D01*
X12501748Y-13656055D02*
X12482701Y-13675103D01*
X12482701Y-13675103D02*
X12463653Y-13684627D01*
X12663653Y-13808436D02*
X12673177Y-13817960D01*
X12673177Y-13817960D02*
X12663653Y-13827484D01*
X12663653Y-13827484D02*
X12654129Y-13817960D01*
X12654129Y-13817960D02*
X12663653Y-13808436D01*
X12663653Y-13808436D02*
X12663653Y-13827484D01*
X12796986Y-13627484D02*
X12816034Y-13627484D01*
X12816034Y-13627484D02*
X12835082Y-13637008D01*
X12835082Y-13637008D02*
X12844605Y-13646531D01*
X12844605Y-13646531D02*
X12854129Y-13665579D01*
X12854129Y-13665579D02*
X12863653Y-13703674D01*
X12863653Y-13703674D02*
X12863653Y-13751293D01*
X12863653Y-13751293D02*
X12854129Y-13789388D01*
X12854129Y-13789388D02*
X12844605Y-13808436D01*
X12844605Y-13808436D02*
X12835082Y-13817960D01*
X12835082Y-13817960D02*
X12816034Y-13827484D01*
X12816034Y-13827484D02*
X12796986Y-13827484D01*
X12796986Y-13827484D02*
X12777939Y-13817960D01*
X12777939Y-13817960D02*
X12768415Y-13808436D01*
X12768415Y-13808436D02*
X12758891Y-13789388D01*
X12758891Y-13789388D02*
X12749367Y-13751293D01*
X12749367Y-13751293D02*
X12749367Y-13703674D01*
X12749367Y-13703674D02*
X12758891Y-13665579D01*
X12758891Y-13665579D02*
X12768415Y-13646531D01*
X12768415Y-13646531D02*
X12777939Y-13637008D01*
X12777939Y-13637008D02*
X12796986Y-13627484D01*
X12987462Y-13627484D02*
X13006510Y-13627484D01*
X13006510Y-13627484D02*
X13025558Y-13637008D01*
X13025558Y-13637008D02*
X13035082Y-13646531D01*
X13035082Y-13646531D02*
X13044605Y-13665579D01*
X13044605Y-13665579D02*
X13054129Y-13703674D01*
X13054129Y-13703674D02*
X13054129Y-13751293D01*
X13054129Y-13751293D02*
X13044605Y-13789388D01*
X13044605Y-13789388D02*
X13035082Y-13808436D01*
X13035082Y-13808436D02*
X13025558Y-13817960D01*
X13025558Y-13817960D02*
X13006510Y-13827484D01*
X13006510Y-13827484D02*
X12987462Y-13827484D01*
X12987462Y-13827484D02*
X12968415Y-13817960D01*
X12968415Y-13817960D02*
X12958891Y-13808436D01*
X12958891Y-13808436D02*
X12949367Y-13789388D01*
X12949367Y-13789388D02*
X12939843Y-13751293D01*
X12939843Y-13751293D02*
X12939843Y-13703674D01*
X12939843Y-13703674D02*
X12949367Y-13665579D01*
X12949367Y-13665579D02*
X12958891Y-13646531D01*
X12958891Y-13646531D02*
X12968415Y-13637008D01*
X12968415Y-13637008D02*
X12987462Y-13627484D01*
X13177939Y-13627484D02*
X13196986Y-13627484D01*
X13196986Y-13627484D02*
X13216034Y-13637008D01*
X13216034Y-13637008D02*
X13225558Y-13646531D01*
X13225558Y-13646531D02*
X13235082Y-13665579D01*
X13235082Y-13665579D02*
X13244605Y-13703674D01*
X13244605Y-13703674D02*
X13244605Y-13751293D01*
X13244605Y-13751293D02*
X13235082Y-13789388D01*
X13235082Y-13789388D02*
X13225558Y-13808436D01*
X13225558Y-13808436D02*
X13216034Y-13817960D01*
X13216034Y-13817960D02*
X13196986Y-13827484D01*
X13196986Y-13827484D02*
X13177939Y-13827484D01*
X13177939Y-13827484D02*
X13158891Y-13817960D01*
X13158891Y-13817960D02*
X13149367Y-13808436D01*
X13149367Y-13808436D02*
X13139843Y-13789388D01*
X13139843Y-13789388D02*
X13130320Y-13751293D01*
X13130320Y-13751293D02*
X13130320Y-13703674D01*
X13130320Y-13703674D02*
X13139843Y-13665579D01*
X13139843Y-13665579D02*
X13149367Y-13646531D01*
X13149367Y-13646531D02*
X13158891Y-13637008D01*
X13158891Y-13637008D02*
X13177939Y-13627484D01*
X13330320Y-13827484D02*
X13330320Y-13694150D01*
X13330320Y-13713198D02*
X13339843Y-13703674D01*
X13339843Y-13703674D02*
X13358891Y-13694150D01*
X13358891Y-13694150D02*
X13387463Y-13694150D01*
X13387463Y-13694150D02*
X13406510Y-13703674D01*
X13406510Y-13703674D02*
X13416034Y-13722722D01*
X13416034Y-13722722D02*
X13416034Y-13827484D01*
X13416034Y-13722722D02*
X13425558Y-13703674D01*
X13425558Y-13703674D02*
X13444605Y-13694150D01*
X13444605Y-13694150D02*
X13473177Y-13694150D01*
X13473177Y-13694150D02*
X13492224Y-13703674D01*
X13492224Y-13703674D02*
X13501748Y-13722722D01*
X13501748Y-13722722D02*
X13501748Y-13827484D01*
X13596986Y-13827484D02*
X13596986Y-13694150D01*
X13596986Y-13713198D02*
X13606510Y-13703674D01*
X13606510Y-13703674D02*
X13625558Y-13694150D01*
X13625558Y-13694150D02*
X13654129Y-13694150D01*
X13654129Y-13694150D02*
X13673177Y-13703674D01*
X13673177Y-13703674D02*
X13682701Y-13722722D01*
X13682701Y-13722722D02*
X13682701Y-13827484D01*
X13682701Y-13722722D02*
X13692224Y-13703674D01*
X13692224Y-13703674D02*
X13711272Y-13694150D01*
X13711272Y-13694150D02*
X13739843Y-13694150D01*
X13739843Y-13694150D02*
X13758891Y-13703674D01*
X13758891Y-13703674D02*
X13768415Y-13722722D01*
X13768415Y-13722722D02*
X13768415Y-13827484D01*
X14158891Y-13617960D02*
X13987463Y-13875103D01*
X14416034Y-13627484D02*
X14435082Y-13627484D01*
X14435082Y-13627484D02*
X14454129Y-13637008D01*
X14454129Y-13637008D02*
X14463653Y-13646531D01*
X14463653Y-13646531D02*
X14473177Y-13665579D01*
X14473177Y-13665579D02*
X14482701Y-13703674D01*
X14482701Y-13703674D02*
X14482701Y-13751293D01*
X14482701Y-13751293D02*
X14473177Y-13789388D01*
X14473177Y-13789388D02*
X14463653Y-13808436D01*
X14463653Y-13808436D02*
X14454129Y-13817960D01*
X14454129Y-13817960D02*
X14435082Y-13827484D01*
X14435082Y-13827484D02*
X14416034Y-13827484D01*
X14416034Y-13827484D02*
X14396986Y-13817960D01*
X14396986Y-13817960D02*
X14387463Y-13808436D01*
X14387463Y-13808436D02*
X14377939Y-13789388D01*
X14377939Y-13789388D02*
X14368415Y-13751293D01*
X14368415Y-13751293D02*
X14368415Y-13703674D01*
X14368415Y-13703674D02*
X14377939Y-13665579D01*
X14377939Y-13665579D02*
X14387463Y-13646531D01*
X14387463Y-13646531D02*
X14396986Y-13637008D01*
X14396986Y-13637008D02*
X14416034Y-13627484D01*
X14568415Y-13808436D02*
X14577939Y-13817960D01*
X14577939Y-13817960D02*
X14568415Y-13827484D01*
X14568415Y-13827484D02*
X14558891Y-13817960D01*
X14558891Y-13817960D02*
X14568415Y-13808436D01*
X14568415Y-13808436D02*
X14568415Y-13827484D01*
X14701748Y-13627484D02*
X14720796Y-13627484D01*
X14720796Y-13627484D02*
X14739844Y-13637008D01*
X14739844Y-13637008D02*
X14749367Y-13646531D01*
X14749367Y-13646531D02*
X14758891Y-13665579D01*
X14758891Y-13665579D02*
X14768415Y-13703674D01*
X14768415Y-13703674D02*
X14768415Y-13751293D01*
X14768415Y-13751293D02*
X14758891Y-13789388D01*
X14758891Y-13789388D02*
X14749367Y-13808436D01*
X14749367Y-13808436D02*
X14739844Y-13817960D01*
X14739844Y-13817960D02*
X14720796Y-13827484D01*
X14720796Y-13827484D02*
X14701748Y-13827484D01*
X14701748Y-13827484D02*
X14682701Y-13817960D01*
X14682701Y-13817960D02*
X14673177Y-13808436D01*
X14673177Y-13808436D02*
X14663653Y-13789388D01*
X14663653Y-13789388D02*
X14654129Y-13751293D01*
X14654129Y-13751293D02*
X14654129Y-13703674D01*
X14654129Y-13703674D02*
X14663653Y-13665579D01*
X14663653Y-13665579D02*
X14673177Y-13646531D01*
X14673177Y-13646531D02*
X14682701Y-13637008D01*
X14682701Y-13637008D02*
X14701748Y-13627484D01*
X14835082Y-13627484D02*
X14958891Y-13627484D01*
X14958891Y-13627484D02*
X14892225Y-13703674D01*
X14892225Y-13703674D02*
X14920796Y-13703674D01*
X14920796Y-13703674D02*
X14939844Y-13713198D01*
X14939844Y-13713198D02*
X14949367Y-13722722D01*
X14949367Y-13722722D02*
X14958891Y-13741769D01*
X14958891Y-13741769D02*
X14958891Y-13789388D01*
X14958891Y-13789388D02*
X14949367Y-13808436D01*
X14949367Y-13808436D02*
X14939844Y-13817960D01*
X14939844Y-13817960D02*
X14920796Y-13827484D01*
X14920796Y-13827484D02*
X14863653Y-13827484D01*
X14863653Y-13827484D02*
X14844606Y-13817960D01*
X14844606Y-13817960D02*
X14835082Y-13808436D01*
X15054129Y-13827484D02*
X15092225Y-13827484D01*
X15092225Y-13827484D02*
X15111272Y-13817960D01*
X15111272Y-13817960D02*
X15120796Y-13808436D01*
X15120796Y-13808436D02*
X15139844Y-13779865D01*
X15139844Y-13779865D02*
X15149367Y-13741769D01*
X15149367Y-13741769D02*
X15149367Y-13665579D01*
X15149367Y-13665579D02*
X15139844Y-13646531D01*
X15139844Y-13646531D02*
X15130320Y-13637008D01*
X15130320Y-13637008D02*
X15111272Y-13627484D01*
X15111272Y-13627484D02*
X15073177Y-13627484D01*
X15073177Y-13627484D02*
X15054129Y-13637008D01*
X15054129Y-13637008D02*
X15044606Y-13646531D01*
X15044606Y-13646531D02*
X15035082Y-13665579D01*
X15035082Y-13665579D02*
X15035082Y-13713198D01*
X15035082Y-13713198D02*
X15044606Y-13732246D01*
X15044606Y-13732246D02*
X15054129Y-13741769D01*
X15054129Y-13741769D02*
X15073177Y-13751293D01*
X15073177Y-13751293D02*
X15111272Y-13751293D01*
X15111272Y-13751293D02*
X15130320Y-13741769D01*
X15130320Y-13741769D02*
X15139844Y-13732246D01*
X15139844Y-13732246D02*
X15149367Y-13713198D01*
X15320796Y-13694150D02*
X15320796Y-13827484D01*
X15273177Y-13617960D02*
X15225558Y-13760817D01*
X15225558Y-13760817D02*
X15349367Y-13760817D01*
X15416034Y-13627484D02*
X15416034Y-13665579D01*
X15492225Y-13627484D02*
X15492225Y-13665579D01*
X15787463Y-13903674D02*
X15777939Y-13894150D01*
X15777939Y-13894150D02*
X15758891Y-13865579D01*
X15758891Y-13865579D02*
X15749368Y-13846531D01*
X15749368Y-13846531D02*
X15739844Y-13817960D01*
X15739844Y-13817960D02*
X15730320Y-13770341D01*
X15730320Y-13770341D02*
X15730320Y-13732246D01*
X15730320Y-13732246D02*
X15739844Y-13684627D01*
X15739844Y-13684627D02*
X15749368Y-13656055D01*
X15749368Y-13656055D02*
X15758891Y-13637008D01*
X15758891Y-13637008D02*
X15777939Y-13608436D01*
X15777939Y-13608436D02*
X15787463Y-13598912D01*
X15844606Y-13627484D02*
X15977939Y-13627484D01*
X15977939Y-13627484D02*
X15892225Y-13827484D01*
X16063653Y-13827484D02*
X16101748Y-13827484D01*
X16101748Y-13827484D02*
X16120796Y-13817960D01*
X16120796Y-13817960D02*
X16130320Y-13808436D01*
X16130320Y-13808436D02*
X16149368Y-13779865D01*
X16149368Y-13779865D02*
X16158891Y-13741769D01*
X16158891Y-13741769D02*
X16158891Y-13665579D01*
X16158891Y-13665579D02*
X16149368Y-13646531D01*
X16149368Y-13646531D02*
X16139844Y-13637008D01*
X16139844Y-13637008D02*
X16120796Y-13627484D01*
X16120796Y-13627484D02*
X16082701Y-13627484D01*
X16082701Y-13627484D02*
X16063653Y-13637008D01*
X16063653Y-13637008D02*
X16054129Y-13646531D01*
X16054129Y-13646531D02*
X16044606Y-13665579D01*
X16044606Y-13665579D02*
X16044606Y-13713198D01*
X16044606Y-13713198D02*
X16054129Y-13732246D01*
X16054129Y-13732246D02*
X16063653Y-13741769D01*
X16063653Y-13741769D02*
X16082701Y-13751293D01*
X16082701Y-13751293D02*
X16120796Y-13751293D01*
X16120796Y-13751293D02*
X16139844Y-13741769D01*
X16139844Y-13741769D02*
X16149368Y-13732246D01*
X16149368Y-13732246D02*
X16158891Y-13713198D01*
X16396987Y-13827484D02*
X16396987Y-13627484D01*
X16482701Y-13827484D02*
X16482701Y-13722722D01*
X16482701Y-13722722D02*
X16473177Y-13703674D01*
X16473177Y-13703674D02*
X16454130Y-13694150D01*
X16454130Y-13694150D02*
X16425558Y-13694150D01*
X16425558Y-13694150D02*
X16406510Y-13703674D01*
X16406510Y-13703674D02*
X16396987Y-13713198D01*
X16606510Y-13827484D02*
X16587463Y-13817960D01*
X16587463Y-13817960D02*
X16577939Y-13808436D01*
X16577939Y-13808436D02*
X16568415Y-13789388D01*
X16568415Y-13789388D02*
X16568415Y-13732246D01*
X16568415Y-13732246D02*
X16577939Y-13713198D01*
X16577939Y-13713198D02*
X16587463Y-13703674D01*
X16587463Y-13703674D02*
X16606510Y-13694150D01*
X16606510Y-13694150D02*
X16635082Y-13694150D01*
X16635082Y-13694150D02*
X16654130Y-13703674D01*
X16654130Y-13703674D02*
X16663653Y-13713198D01*
X16663653Y-13713198D02*
X16673177Y-13732246D01*
X16673177Y-13732246D02*
X16673177Y-13789388D01*
X16673177Y-13789388D02*
X16663653Y-13808436D01*
X16663653Y-13808436D02*
X16654130Y-13817960D01*
X16654130Y-13817960D02*
X16635082Y-13827484D01*
X16635082Y-13827484D02*
X16606510Y-13827484D01*
X16787463Y-13827484D02*
X16768415Y-13817960D01*
X16768415Y-13817960D02*
X16758891Y-13798912D01*
X16758891Y-13798912D02*
X16758891Y-13627484D01*
X16939844Y-13817960D02*
X16920796Y-13827484D01*
X16920796Y-13827484D02*
X16882701Y-13827484D01*
X16882701Y-13827484D02*
X16863653Y-13817960D01*
X16863653Y-13817960D02*
X16854130Y-13798912D01*
X16854130Y-13798912D02*
X16854130Y-13722722D01*
X16854130Y-13722722D02*
X16863653Y-13703674D01*
X16863653Y-13703674D02*
X16882701Y-13694150D01*
X16882701Y-13694150D02*
X16920796Y-13694150D01*
X16920796Y-13694150D02*
X16939844Y-13703674D01*
X16939844Y-13703674D02*
X16949368Y-13722722D01*
X16949368Y-13722722D02*
X16949368Y-13741769D01*
X16949368Y-13741769D02*
X16854130Y-13760817D01*
X17025558Y-13817960D02*
X17044606Y-13827484D01*
X17044606Y-13827484D02*
X17082701Y-13827484D01*
X17082701Y-13827484D02*
X17101749Y-13817960D01*
X17101749Y-13817960D02*
X17111273Y-13798912D01*
X17111273Y-13798912D02*
X17111273Y-13789388D01*
X17111273Y-13789388D02*
X17101749Y-13770341D01*
X17101749Y-13770341D02*
X17082701Y-13760817D01*
X17082701Y-13760817D02*
X17054130Y-13760817D01*
X17054130Y-13760817D02*
X17035082Y-13751293D01*
X17035082Y-13751293D02*
X17025558Y-13732246D01*
X17025558Y-13732246D02*
X17025558Y-13722722D01*
X17025558Y-13722722D02*
X17035082Y-13703674D01*
X17035082Y-13703674D02*
X17054130Y-13694150D01*
X17054130Y-13694150D02*
X17082701Y-13694150D01*
X17082701Y-13694150D02*
X17101749Y-13703674D01*
X17177939Y-13903674D02*
X17187463Y-13894150D01*
X17187463Y-13894150D02*
X17206511Y-13865579D01*
X17206511Y-13865579D02*
X17216034Y-13846531D01*
X17216034Y-13846531D02*
X17225558Y-13817960D01*
X17225558Y-13817960D02*
X17235082Y-13770341D01*
X17235082Y-13770341D02*
X17235082Y-13732246D01*
X17235082Y-13732246D02*
X17225558Y-13684627D01*
X17225558Y-13684627D02*
X17216034Y-13656055D01*
X17216034Y-13656055D02*
X17206511Y-13637008D01*
X17206511Y-13637008D02*
X17187463Y-13608436D01*
X17187463Y-13608436D02*
X17177939Y-13598912D01*
M02*
